<?xml version="1.0" encoding="utf-8"?>
<!-- Generator: Adobe Illustrator 23.0.6, SVG Export Plug-In . SVG Version: 6.00 Build 0)  -->
<svg version="1.1" id="Layer_1" xmlns="http://www.w3.org/2000/svg" xmlns:xlink="http://www.w3.org/1999/xlink" x="0px" y="0px"
	 viewBox="0 0 150 150" style="enable-background:new 0 0 150 150;" xml:space="preserve">
<style type="text/css">
	.st0{fill-rule:evenodd;clip-rule:evenodd;fill:#FFFFFF;}
</style>
<path class="st0" d="M38.9,87.2c1.2,0.7,2,1.5,3.1,2.4l9.4,8.7c2,1.9,6.9,6.9,8.9,9.1c1.3,1.5,1.9,1.7,2.8,3.2
	c-0.4,0.1-4.7,1.1-7.3,2c-5.3,1.8-10.1,4.7-14.7,3.2c-0.7-0.2-3.8-3.2-5.3-4.2c-0.9-0.6-1.7-1.2-2.6-1.9c-2.8-2-3.6-0.6,0.1-9.3
	c1-2.3,1.8-4.3,2.7-6.5C36.8,91.9,37.9,88.7,38.9,87.2L38.9,87.2z M106.1,34.8c1.9,0.7,6.6,3.3,7.7,4.8c1,1.2,0.7,1.3,0.3,3.1
	l-1.9,14.8c-2.6,0.1-1.9-0.2-3.5-1.3c-2.7-1.8-12.1-8.8-15.1-11.2l-5.8-4.7c0.4-0.4-0.1-0.2,0.8-0.4l8.6-1.9
	C101.7,36.8,102.4,36.5,106.1,34.8L106.1,34.8z M29.3,37.7c2-1.1,3-0.3,6.3-2.7c0.9-0.6,2.9-0.6,4.2-0.4c1.3,0.2,4.2,2.6,5.6,3.5
	c0.8,0.5,4.3,3.2,4.9,4.1l1.7,2.8c2.4,0.1,2,0,5,2.2l29,19.1c6.2,4.3,13.5,8.8,19.8,13.1l17.9,11.7c-0.5,1.1-1.1,4.9-1.5,6.5
	c-1.5,7-3.5,10-6.7,16.8c-4.5,0.2-8.1,0.1-12.5,0.1c-1.4,0-1.1,0.3-1.9-0.5c-2.6-2.5-7.3-8-9.9-10.6c-0.9-0.9-1.7-1.7-2.6-2.7
	c-7.2-7.7-3.8-5.4-5.2-7.3L68.8,79.7c-3.3-3.3-6.4-6.8-9.8-10.4c-0.9-0.9-1.3-1.8-2.3-2.7l-0.3-0.2c-0.2-0.2-0.2-0.1-0.4-0.4
	l-4.2-4.8c-0.7-0.7-0.7-0.7-1.2-1.3L46.8,56c-0.8-0.9-1.5-1.8-2.3-2.7l-3.6-3.9c-0.5-0.6-0.9-0.7-1.5-1.3c-1.7-1.8-3.2-3.5-4.9-5.3
	C33.1,41.3,29.7,38.5,29.3,37.7L29.3,37.7z M46.7,16.2l-29.9,0.6c-1.6,6,0,2.9,0,9.2l0,11.3c-0.2,3.3-1.1,4.9-1.1,9.3
	c0,1.5-0.3,4.8,0.4,6c1.2,2,1.2,3.8,1.7,6.7c0.5,2.6,1,2.3-0.2,4.3l-0.5,5l2.6,2.5l0,4.4c-1.5,1.4,0.2,0.4-3,2.7l0.3,13.2l3.2,2.3
	l-0.7,11.3c-3.3,2.4-2.6,5.3-2.5,8.3l0.4,11.2l-0.7,5.8c7.5,1.9,5.9,1.3,14.4,1.3c7.6,0,6.6,0.1,14.1-0.8l0.2,1.3
	c1.2-0.1,2.4-0.1,3.5-0.2c3.2-0.3,1.9-0.7,3-1.1c0.8-0.3,9.3,1.7,10.7,2c0.8-0.9,0.4-0.5,1.4-1.2c0.6,1.2,3,4,4,5.2l3.1-2.9l5.4,2.1
	l1.6-1.3c0.6,0.7,1,1.6,2.1,1.8c1.6,0.2,1.9-2.4,5.4-2.5l20.5-0.7c0.3-0.3,0.4-0.4,0.7-0.7l1-0.9c1.3,0.8,1.9,1.6,3.8,1.5
	c5.7-0.4,2.7,1.4,10,1c1.3-0.1,0.9-0.4,2.1-0.8l2.4-0.4c-0.5-1.4-0.8-1.2-1.9-2.2l13,2.6c-0.2-15.3-0.1-34,0.1-49.7l-3.5,0.3
	c0.1-1,1.7-0.6,1.8-2.7c0.2-2.6,0.1-11.5-0.3-13.4c-0.2-1-2.7-3.8-3.3-4.7c0.8-2.1,0.9-2,2.3-3.7c-0.1-1.1-0.4-1.4-0.9-2.8l3.8-1.2
	c0-2.2,0.3-11,0.1-13.8l-1.5-15l1.2-3.8l0.1-3.9c-3.3-1.9-2.9-2.1-5.1-2.1c-2.1,0-4.8-0.1-6.8-0.5c-2.5-0.6-1.8-1-4.6,1.9l-1.3-2.7
	c-4-0.3-16.6-1.4-19.6-1.4c-3.9,0-3.3,0.3-4.6,4.7l-5.5,0.6l-0.7-2.4l-5-0.1l0.5-0.6c1-0.9,0.6-0.6,1.4-2.2l-20.1,0
	c-0.7,1.2-1.9,2.2-3.3,2.6c-2,0.7-1-0.4-2.3,0.7c-0.9,0.9-1.1,0.8-2.6,0.8c-2,0-4-0.1-6-0.2c-0.9,0-1.9,0.1-2.8-0.2
	C47.1,17.4,47.5,17.1,46.7,16.2L46.7,16.2z"/>
</svg>
