<?xml version="1.0" encoding="utf-8"?>
<!-- Generator: Adobe Illustrator 24.2.3, SVG Export Plug-In . SVG Version: 6.00 Build 0)  -->
<svg version="1.1" id="BMW" xmlns="http://www.w3.org/2000/svg" xmlns:xlink="http://www.w3.org/1999/xlink" x="0px" y="0px"
	 viewBox="0 0 340.2 340.2" style="enable-background:new 0 0 340.2 340.2;" xml:space="preserve">
<style type="text/css">
	.st0{fill:#FFFFFF;}
</style>
<g>
	<g>
		<path id="W_41_" class="st0" d="M238.8,109.9c1.9,2.1,4.7,5.4,6.3,7.4l28.7-18.2c-1.4-1.9-3.7-4.7-5.4-6.7l-18.2,12l-1.2,1.1
			l0.9-1.4l8-16l-5.7-5.7l-16,8l-1.3,0.9l1.1-1.2l12-18.2c-2.1-1.8-4.1-3.5-6.7-5.5l-18.2,28.7c2.3,1.8,5.4,4.4,7.3,6.2l17.2-8.9
			l1.1-0.8l-0.8,1.1L238.8,109.9z"/>
		<path id="M_41_" class="st0" d="M173.6,73.6l7.8-17.6l0.5-1.6l-0.1,1.6l0.8,23.5c2.8,0.3,5.6,0.6,8.4,1.1l-1.3-34.8
			c-3.9-0.4-7.8-0.7-11.7-0.9l-7.7,19.2l-0.3,1.4l-0.3-1.4L162.1,45c-3.9,0.2-7.8,0.5-11.7,0.9l-1.3,34.8c2.8-0.5,5.6-0.8,8.4-1.1
			l0.8-23.5l-0.1-1.6l0.5,1.6l7.8,17.6H173.6z"/>
		<path id="B_x5F_22d_41_" class="st0" d="M110.2,101.3c4.5-4.8,7.1-10.3,2.6-15.6c-2.5-2.9-6.6-3.5-10-2.1l-0.3,0.1l0.1-0.3
			c0.5-1.4,0.8-5.7-2.9-8.7c-1.8-1.5-4.1-2-6.3-1.8c-4.3,0.4-7.5,3.3-16.5,13.3c-2.7,3-6.6,7.7-9,10.8c0,0,24.5,23.2,24.5,23.2
			C100.5,111.4,103.8,108.1,110.2,101.3z M78.3,95.6c4.9-6,10.2-11.5,12.6-13.7c0.8-0.7,1.6-1.4,2.6-1.6c1.6-0.4,3.3,0.7,3.6,2.4
			c0.4,1.7-0.7,3.2-1.8,4.5C92.6,90.1,83,100.2,83,100.2S78.3,95.6,78.3,95.6z M87.9,104.7c0,0,9.3-9.8,12.4-13c1.2-1.3,2-2,2.8-2.4
			c1.1-0.5,2.2-0.6,3.3,0.1c1,0.7,1.5,1.9,1.2,3.1c-0.3,1.4-1.5,2.7-2.4,3.8c-1.3,1.4-12.3,13.2-12.3,13.2L87.9,104.7z"/>
	</g>
	<path class="st0" d="M170.1,28.3c-78.3,0-141.7,63.5-141.7,141.7s63.5,141.7,141.7,141.7s141.7-63.5,141.7-141.7
		S248.4,28.3,170.1,28.3L170.1,28.3z M302.6,170.1c0,73.2-59.3,132.5-132.5,132.5S37.6,243.3,37.6,170.1S96.9,37.6,170.1,37.6
		S302.6,96.9,302.6,170.1z"/>
	<path class="st0" d="M86,170.1L86,170.1c0,46.5,37.6,84,84,84v0c46.4,0,84-37.6,84-84l0,0h0c0-46.5-37.6-84-84-84v0l0,0
		C123.7,86,86,123.7,86,170.1z M90.6,170.1c0-43.8,35.6-79.4,79.4-79.4l0,0v79.4h79.4l0,0c0,43.8-35.6,79.4-79.4,79.4v-79.4H90.6z"
		/>
</g>
</svg>
