<?xml version="1.0" encoding="utf-8"?>
<!-- Generator: Adobe Illustrator 24.2.3, SVG Export Plug-In . SVG Version: 6.00 Build 0)  -->
<svg version="1.1" id="Layer_1" xmlns="http://www.w3.org/2000/svg" xmlns:xlink="http://www.w3.org/1999/xlink" x="0px" y="0px"
	 viewBox="0 0 645.8 389" style="enable-background:new 0 0 645.8 389;" xml:space="preserve">
<style type="text/css">
	.st0{fill-rule:evenodd;clip-rule:evenodd;fill:#FFFFFF;}
	.st1{fill:#FFFFFF;}
</style>
<path class="st0" d="M435.5,296.6l0-34.1h-18.8l0,37.7c0,12.8,13.2,23.1,29.5,23.1c16.3,0,29.5-10.3,29.5-23.1l0-37.7l-18.6,0
	l0,34.1c0,5.7-4.8,10.3-10.8,10.3S435.5,302.3,435.5,296.6z"/>
<rect x="518.1" y="222" class="st0" width="18.9" height="99.2"/>
<rect x="486.1" y="222" class="st0" width="18.9" height="99.2"/>
<path class="st0" d="M140.4,242.8l-10.3,0v78.4H110v-94.6c0,0,34.1,0,34.6,0c15.7,0,28.5,12.5,28.5,28c0,13.1-9.2,24.2-21.7,27.2
	l27.8,39.5h-23.7l-20.1-31v-22.6l4.7,0c7.4,0,13.4-5.5,13.4-12.4C153.4,248.4,147.8,242.8,140.4,242.8z"/>
<path class="st1" d="M238.5,295.7c0.1-1.3,0.2-2.6,0.2-4c0.3-20.5-13.2-31.7-30.5-31.7c-17.2,0-31.2,14.2-31.2,31.6
	c0,17.5,14,31.6,31.2,31.6c13.2,0,23.4-6,28.7-15.3l-15.3-7.1c-2,4.2-6.5,7.2-11.8,7.2c-7.4,0-12.8-5.4-12.9-11.8c0-0.4,0-0.6,0-0.6
	L238.5,295.7z M196.8,284.9c0-6.4,5.2-11.5,11.5-11.5c6.4,0,11.5,5.2,11.5,11.5H196.8z"/>
<path class="st1" d="M313.8,321.2l0-99.2h-18.8l0,46.9c-5-5-11.7-8-19-8c-15.6,0-28.3,13.8-28.3,30.9c0,17.1,12.7,30.9,28.3,30.9
	c7.4,0,14-3.1,19.1-8.2v6.6H313.8z M281.3,306.7c-7.7,0-13.9-6.8-13.9-15.2c0-8.4,6.2-15.2,13.9-15.2c7.7,0,13.9,6.8,13.9,15.2
	C295.1,299.9,288.9,306.7,281.3,306.7z"/>
<path class="st1" d="M393.6,269.7c5.2-4.8,8.3-11.3,8.3-18.4c0-6.4-2.5-12.3-6.8-17c-4.5-5-12.5-7.7-23.3-7.7h-32.3v94.6h41.7
	c16-0.3,28.9-12.3,28.9-27.1C410.2,283.3,406.4,275.6,393.6,269.7z M377.8,304.8h-18.1v-62h12.6c5.5,0,10,5.1,10,10.6
	c0,5.5-4.5,10-10,10h-6.6v17h12c6.7,0,11.8,5.4,11.8,12.1C389.4,299.5,385.1,304.3,377.8,304.8z"/>
<g>
	<path class="st1" d="M402.7,164.7c-0.7,0.1-1.4,0.1-2.1,0.1c-0.4,0-0.7,0-1.1,0c-0.3,0-0.6,0-0.8,0c-0.4,0-0.8,0-1.1,0.1l-0.1,0
		l0,0.1c-0.1,0.1-1.4,2.5-1.2,4c0.2,1.6,1.8,1.9,3.1,2.2c0.4,0.1,1,0.2,1.5,0.2c0.9,0,1.5-0.3,1.8-0.9c0.7-1.9,1.2-3.5,1.4-5
		c0-0.2,0-0.4-0.1-0.5c-0.2-0.3-0.6-0.3-0.9-0.3C402.9,164.7,402.8,164.7,402.7,164.7z"/>
	<path class="st1" d="M493.2,170.3c-0.8-1.1-2.1-2-3.2-2.7c-0.5-0.3-0.9-0.6-1.2-0.9l-0.2-0.2c-0.3-0.2-0.5-0.3-0.9-0.3
		c-1.2,0-2.6,1.5-2.6,2c0,0.7,1,2,2.4,3.7l0.3,0.4c0.7,0.8,1.4,1.3,2.2,1.3l0,0c0.8,0,1.4-0.3,2.1-0.9
		C492.5,172.2,493.6,171,493.2,170.3z"/>
	<path class="st1" d="M498.9,179.8c-0.2-0.4-0.4-0.9-0.5-1.2c-0.1-0.5-0.2-1.1-0.3-1.7c-0.1-0.9-0.2-1.7-0.5-2.4
		c-0.3-0.8-1.3-1.4-2.2-1.4c-0.3,0-0.6,0.1-0.9,0.2c-1.3,0.7-2.1,1.4-1.9,2.9c0.7,2.2,1.1,3.8,1.6,6c0.1,0.3,0.3,1.4,0.8,1.4
		c0,0,0.1,0,0.1,0l3.9-1.3c0.2-0.1,0.3-0.2,0.4-0.3C499.7,181.6,499.3,180.7,498.9,179.8z"/>
	<path class="st1" d="M490.1,176.1l0-0.1l-0.1,0c-2.2,0.1-3.6-1.7-5-3.4c-0.4-0.6-0.9-1.1-1.3-1.6c-0.7-0.8-1.5-1.5-2.1-2.1
		c-0.8-0.7-1.5-1.3-1.7-1.8c-0.3-0.7-0.7-1.9-1-3.1c-0.2-0.9-0.5-1.7-0.7-2.3c0-0.1-0.1-0.2-0.1-0.4c-0.4-1.1-0.9-2.4-2.3-2.6
		c-0.7-0.1-1.5-0.1-2.2-0.2c-2-0.1-4-0.4-5.1-1.9c-1-1.3-0.6-2.6,0-3.9c0.2-0.6,0.4-1.1,0.5-1.6c0.7-2.4,1-5.4,0.4-7.6
		c-0.1-0.3-0.2-0.7-0.3-1c-0.3-0.9-0.6-2.2-0.4-2.6c0.2-0.4,0.5-0.5,0.9-0.5c0.4,0,0.8,0.1,1.1,0.2c0.3,0.1,0.5,0.1,0.7,0.2
		c1,0.2,2.5,0.5,3.9,0.5c2.3,0,4.6-0.5,6.7-1.4c3.9-1.9,7.7-6.1,7.5-11.4c-0.5-5.3-3.8-10.5-10.1-15.7c-0.2-0.1-0.3-0.3-0.5-0.4
		c-0.8-0.7-1.8-1.5-1.8-2.3c0-0.8,1.9-1.2,3.2-1.5c0.3-0.1,0.5-0.1,0.8-0.2l0.3-0.1c1.6-0.4,3.2-0.8,4.5-1.7c4.5-3,4.3-8.3,3.8-11.2
		c0-0.1,0-0.2-0.1-0.3c-0.1-0.4-0.2-0.9-0.5-0.9c-0.1,0-0.2,0.1-0.3,0.2c-0.1,0.1-0.3,0.2-0.4,0.4c-0.5,0.5-1.1,1-1.7,1.4
		c-1.4,0.8-3.1,1.2-4.8,1.5c-1,0.2-2.1,0.4-3.1,0.8c-4.4,1.5-7.2,3.8-8.2,6.7c-0.5,1.5-0.2,3.4,0.8,5.3c1.5,2.3,3.6,4.3,5.6,6.3
		c3.2,3.1,6.5,6.2,7.3,10.6c0.4,2.5-0.6,4.6-3.1,6.5c-1.3,0.8-3,1.2-4.9,1.2c-2.3,0-4.8-0.6-6.8-1.7c-2.6-1.3-5.1-3-7.5-4.6
		c-3.7-2.4-7.4-5-11.6-6.3c-1.8-0.8-3.8-1.2-5.8-1.6c-2.8-0.6-5.6-1.1-7.9-2.9c-0.8-0.5-1.6-1.1-2.3-1.6c-2.1-1.5-4.2-3.1-6.7-3.7
		c-0.9-0.3-1.8-0.4-2.7-0.6c-1.3-0.2-2.6-0.4-3.8-1.2c-0.5-0.4-1.1-0.8-1.6-1.1c-1.9-1.4-4-2.9-6-3.9c-3.5-1.7-7.1-2.6-11.3-3.5
		c-1.3-0.3-2.1-1.3-3-2.4c-0.6-0.7-1.2-1.4-1.9-2c-3.2-2.5-6-4.2-9.7-4.2c-0.3,0-0.7,0-1,0c-1.9,0.1-3.8,1.6-5.1,2.7
		c-0.1,0.1-0.3,0.2-0.4,0.4c-2.3-3.2-5.5-7.2-9.8-11.2c-9-8.4-24.6-18.5-47.2-18.5c-22.7,0-38.1,10-47.1,18.4
		c-3.9,3.6-6.9,7.2-9.1,10.3c-0.2-0.1-0.5-0.2-0.8-0.3c-1.3-0.5-2.9-0.7-4.5-0.7c-2,0-4,0.4-5.7,1.1c-1.1,0.6-2.2,1.3-3.3,2
		c-1.8,1.2-3.7,2.4-5.8,3.1c-1.6,0.7-3.3,1.3-5,1.8c-3.2,1-6.6,2-9.3,4.5c-0.8,0.7-1.4,1.3-1.9,1.8c-2.5,2.3-2.7,2.6-4.7,2.6
		c-4.7,0-8,1.1-11.4,3.9c-2.7,2.5-5.4,4.8-8.6,5.9c-1.4,0.5-3,0.7-4.6,0.8c-2.4,0.2-2.7,0.2-5,0.8c-3.4,0.8-7,3.6-10,5.9
		c-1,0.8-2.3,1.8-3,2.2c-0.3,0.2-0.7,0.5-1,0.6c-3.8,2.2-7.4,4.3-11.9,4.3c-0.1,0-0.2,0-0.3,0c-3.4-0.2-6.5-2.6-7.6-5.7
		c-1-3.5,0.1-7.1,2.8-9.9c1.3-1.3,2.8-2.6,4.3-3.8c2.3-2,4.5-3.9,6.1-5.9c1.8-2.4,1.6-6.4-0.4-8.6c-2-2.2-6.5-3.3-8.1-3.7l-0.3-0.1
		c-0.2,0-0.5-0.1-0.6-0.1c-1.1-0.2-2.1-0.4-3.1-0.6c-2.7-0.7-4.7-2.8-7.1-4c-0.9,1.4-1.2,2.9-1.1,4.6c0.5,3.5,3.4,7.2,6.7,8.7
		c0.1,0.1,0.3,0.1,0.4,0.2c1,0.4,2.1,0.5,3.2,0.5c0.2,0,0.4,0,0.7,0c0.2,0,0.4,0,0.7,0c0.6,0,1.4,0,2.1,0.2c0.6,0.2,1.3,0.8,1.4,1.6
		c0.1,0.5-0.2,0.8-0.8,1.3c-0.6,0.5-1.1,0.9-1.7,1.4c-2.8,2.3-5.7,4.7-8.1,7.7c-3.2,3.4-3.3,9.4-1.8,13.3c1.9,5.1,7.1,7.9,11.5,8.5
		c0.8,0.1,1.5,0.2,2.4,0.2c2.6,0,5-0.6,7.4-1.2c0.1,0,0.2,0,0.2,0c0.1,0,0.3,0,0.3,0.5c0.1,1.1,0.1,2.2,0.2,3.4
		c0.1,1.9,0.2,3.7,0.3,4.4c0.3,1.7,1.1,3.7,1.7,5c0.2,0.6,0.4,1,0.5,1.2c0.2,0.8,0,1.6-0.5,2.1c-1.8,1.6-5.4,2.9-6.1,3
		c-1.1,0.1-2.2,0.2-3.1,0.2c-0.4,0-0.8,0-0.9,0.1c-0.4,0-0.7,0.2-1,0.5c-0.5,0.5-1.1,1.9-1.7,3.6c-0.4,1-0.8,2-1.2,2.9
		c-1.1,1.9-3.1,3-4.9,4.1c-0.5,0.3-0.9,0.5-1.4,0.8l-0.1,0.1c-0.8,1.2-1.5,2.4-2.5,3.2c-0.8,0.7-1.7,0.9-2.7,1l-0.1,0l0,0
		c-1.4,1.7-1.9,3.9-2.4,6c-0.1,0.3-0.1,0.7-0.2,1l-0.1,0.3l0.2,0c0.8,0.1,1.5,0.2,2.3,0.4c1.1,0.2,2.2,0.5,3.2,0.5
		c1,0,1.9-0.2,2.7-0.7c1.4-0.6,2.1-1.9,2.8-3.1c0.5-0.8,1-1.6,1.6-2.3c0.4-0.4,0.9-0.6,1.5-0.6c0.5,0,1.1,0.2,1.7,0.3
		c0.5,0.1,1.1,0.3,1.6,0.3c2.5,0.1,5-1.5,6.1-2.4c0.5-0.4,1-0.9,1.5-1.4c0.8-0.7,1.6-1.5,2.4-2c1-0.5,2.3-0.7,3.8-0.7
		c1.9,0,4,0.4,5.6,0.7c0.9,0.2,1.8,0.3,2.6,0.3c1.5,0,3-0.4,4.2-1c1.4-0.8,2.8-1.6,4-2.2c0.7-0.4,1.3-0.7,1.7-0.9
		c2-1.1,3.8-4.2,4.4-5.5c0.6-1.2,1.6-3.8,1.6-3.8l0-0.1l-2.4-1.8l-0.1,0.2c0,0-1.6,2.6-2.6,3.8c-4.2,5.7-11,6.4-16.5,6.4
		c-0.4,0-0.8,0-1.1,0c-6.8,0-12.3,2.3-16.2,6.8c-0.2,0.2-0.5,0.2-0.7,0.1c-0.1-0.1-0.1-0.3-0.1-0.5c0.1-0.5,0.2-0.6,0.4-1.1
		c4.3-6,11.5-6.9,17.3-7c4.3-0.3,7.5-1,10.2-2.4c3.5-1.8,6.1-5.7,7.1-8.9c0.7-2.1,1-4.2,1.3-6.4c0.3-1.7,0.5-3.4,0.9-5
		c0.1-0.2,0.3-0.3,0.5-0.3c0,0,0.1,0,0.2,0c0.2,0,0.6,0.2,0.6,0.5c-0.6,3.3-1.4,7.9,0.1,11.6c0.7,1.5,2.2,2.2,4.6,2.2
		c1.4,0,3-0.2,4.6-0.5c1.2-0.2,2.3-0.4,3.3-0.4c0.4,0,0.8-0.1,1.2-0.1c1.9,0,3.7,0.4,5.5,0.7c1.6,0.3,3.2,0.6,4.8,0.7
		c0.3,0,0.6,0,0.9,0.1c0.6,0,1.2,0.1,1.8,0.1c1.4,0,2.4-0.3,3.1-0.9c0.5-0.4,0.3-1,0.1-1.8l0-0.1c0-0.1-0.1-0.3-0.1-0.4
		c-0.3-1-0.8-2.6,0-3.3c0.1-0.1,0.3-0.1,0.4-0.1c0.1,0,0.3,0,0.4,0.2c0.1,0.3,0.2,0.6,0.3,0.9c0.4,1.2,0.7,2.5,1.5,3.6
		c1.7,2.1,4.2,4.1,7.5,5.8c2.1,1.4,4.6,3.8,4.7,7.2c0,1.5-1.5,2.6-2.6,3.2c-1.7,0.9-4.7,1.8-6.1,1.8c-0.3,0-0.5,0-0.5-0.1
		c-2-1.1-3-2.8-4.1-4.6c-0.6-1-1.2-2-1.9-2.9c-1-1.2-2.4-1.6-4.1-1.5c-1.7,0.1-3.3,0.5-5.2,0.9c-0.4,0.1-0.7,0.3-0.8,0.6
		c-0.2,0.4-0.1,0.8,0.1,1.2c1,1.7,1.9,3.3,2.9,5l0.4,0.7c0.2,0.4,0.8,0.5,1.2,0.5c0.2,0,0.5,0,0.7,0c0.3,0,0.6,0,0.8,0
		c0.9,0,1.4,0.2,1.8,0.6c0.3,0.5,0.6,0.9,0.8,1.4c0.7,1.2,1.3,2.4,2.5,3.3c1,0.9,2.5,1.4,4.1,1.4c0.7,0,1.3-0.1,2-0.3
		c4.5-1.4,8.8-2.9,13-5.1l1.4,0c0.3,0,0.6-0.1,0.9-0.1c1.4-0.1,2.9-0.2,4-1.3c0.4-0.6,0.8-1.2,1.2-1.8c6.7,10.1,24.8,31.4,58,31.4
		c32.4,0,50.6-20.3,57.7-30.6c0.2,0.5,0.4,0.9,0.7,1.3c0.4,0.5,0.9,0.7,1.6,0.7c0.3,0,0.7-0.1,1-0.1c0.6-0.1,1.2-0.2,1.6,0
		c0.7,0.2,1.2,0.7,1.7,1.2c0.5,0.5,1,1.1,1.8,1.3c1.4,0.5,2.9,0.9,4.3,1.2c1.9,0.5,3.9,1,5.7,1.7c1.1,0.3,2.2,0.7,3.3,0.7
		c1.2,0,2-0.3,3-1.2c1.5-1.2,2-2.4,2.3-4.1c0.3-1.6,0.8-1.7,1.9-1.7c0.5,0,0.6,0,1.2-0.2c0.6-0.2,2.2-2.2,3.1-3.8
		c0.2-0.4,0.5-0.9,0.7-1.2c0.3-0.4,0.4-0.7,0.4-1c0-0.8-0.7-1.1-1.1-1.1l-0.3,0c0,0-4.8,0-6.2,0c-2,0.1-2.9,2-3.6,3.7
		c-0.3,0.7-0.5,1.3-0.9,1.8c-0.5,1-1.5,1.5-2.8,1.5c-0.4,0-1.2-0.2-1.6-0.3c-2.6-0.6-5.3-1.3-6.4-3.9c-0.1-0.4-0.3-1.4,0.4-2.1
		c1.4-1.6,3.2-3.7,5.1-5.1c2.6-0.6,5.3-2.5,6.7-4.9c0.3-0.4,0.5-0.9,0.6-1.4c0.2-0.7,0.5-1.4,1.1-1.9c0.4-0.2,0.8-0.1,0.9,0.2
		c0.2,1.4-0.3,2.7-0.8,4c-0.1,0.3-0.2,0.6-0.3,0.8l-0.1,0.2l0.2,0c0.7,0.1,1.5,0.1,2.2,0.1c2.7,0,5.3-0.5,7.7-0.9
		c2.5-0.4,5-0.9,7.6-0.9c0.3,0,0.6,0,0.9,0c1.2,0,2.3,0.1,3.4,0.2c1.1,0.1,2.2,0.2,3.3,0.2c0.4,0,0.8,0,1.1,0
		c3.4-0.2,5.8-1.7,6.5-4.1c0.7-2.1,0.6-5.6-0.2-10.6c0-0.2-0.1-0.4-0.1-0.4c0,0,0-0.1,0-0.1c0-0.2,0-0.4,0.2-0.5
		c0.3-0.2,0.6,0,0.8,0.4c1.3,3.6,2,7.7,2.4,10.5c0.4,2.7,1.6,5.5,3.5,8.5c2.4,3.6,6.4,5.7,10.9,5.7c1,0,2.1-0.2,3.1-0.3
		c0.7-0.1,1-0.1,1.5-0.1c5.7,0,10.7,2.5,14.4,7.2c0,0,0.1,0.1,0.1,0.2c0,0.2-0.3,0.4-0.5,0.3l-0.5-0.4c-3.2-2.5-6.6-5.1-10.8-5.6
		c-0.7-0.1-1.5-0.2-2.4-0.2c-1.2,0-2.4,0.1-3.6,0.3c-1.2,0.1-2.2,0.3-3.3,0.3c-1.4,0-2.6-0.2-3.8-0.7c-4.8-1.6-8.8-7.1-10-10.6
		c-0.1-0.1-0.2-0.3-0.5-0.3c-0.1,0-0.3,0-0.4,0.1c-0.6,0.3-0.7,0.5-0.7,0.9c-0.1,0.3,0.4,2.8,0.6,3.8c0.6,2.6,1.6,6.6,5,8.1
		c0.4,0.3,0.9,0.5,1.3,0.8c1.7,1.1,3.5,2.2,5.5,2.2c0.5,0,1-0.1,1.4-0.2c1.2-0.3,2.5-0.4,3.7-0.4c4,0,8,1.4,11.4,3.8
		c0.6,0.3,1.1,0.8,1.6,1.2c0.7,0.6,1.5,1.3,2.4,1.6c0.6,0.2,1.2,0.3,1.8,0.3c1.5,0,1.9-0.5,3-1c0.5-0.2,1-0.3,1.3-0.3
		c1.2,0,1.9,1,2.8,2.2c0.5,0.7,1.1,1.6,1.9,2.3c1.1,1.1,2.7,1.2,3.9,1.2c0.7,0,1.3,0,2-0.1c0.6,0,1.4-0.1,1.8-0.1
		c0.4,0,0.6-0.1,0.6-0.1l0-0.2C491.8,180.6,491.2,178.4,490.1,176.1z M387.4,108.3c0.4,0.7,0.3,1.5-0.5,2.2
		c-0.6,0.5-1.1,1.1-1.7,1.6c-2,1.9-4.2,3.8-5.6,6c-0.7,0.9-1.1,1.9-1.6,2.9c-0.1,0.1-0.2,0.3-0.4,0.3c-0.1,0-0.2,0-0.3-0.1
		c-0.4-0.4-0.1-3.1,0.4-4.5c1.1-3.1,3.7-6.2,7.1-8.8c0.4-0.2,0.8-0.4,1.2-0.4C386.7,107.5,387.2,107.8,387.4,108.3z M263.8,113.1
		c0.2-0.3,0.6-0.5,1.1-0.5c0.2,0,0.5,0,0.7,0.1c0.7,0.3,1.5,1.2,2.2,2.7c1.8,3.8,0.4,9.1,0.4,9.1c-0.1,0.3-0.3,0.5-0.4,0.5
		c-0.1,0-0.3,0-0.4-0.4c-0.7-3.8-1.2-5.7-2.1-7.5c-0.3-0.6-0.6-1-0.9-1.5C263.8,114.8,263.2,114.1,263.8,113.1z M391.7,156.1
		l-3.7,5.4c-0.9,1.2-1.7,2.6-2,3.9c-0.3,1.4-0.2,2.7,0,4l0,0.3c-0.1,0-0.2-0.1-0.3-0.3c-1.5-2.7-1.8-5-1-6.7
		c0.5-1.1,3.5-5.4,4.4-6.8c0.3-0.4,0.5-0.9,0.3-1.2c-0.3-0.4-2.5-1.3-3.1-1.3c0,0-0.1,0-0.1,0c-0.5,0.2-0.9,0.6-1.2,1.1
		c-0.1,0.1-0.1,0.2-0.2,0.3l-4.5,8.2l-0.1,0.3c-0.3,0.8-0.5,1.5-0.3,2.5c0.1,0.6,0.3,1.3,0.5,1.9c-5.2,8.4-22.7,31.6-56.3,31.6
		c-33.4,0-50.7-22.8-56-31.4c0.1-0.1,0.1-0.3,0.2-0.4c0.9-1.8,0.9-3.6,0-5.1c-2.6-4.2-3.1-5.3-4.2-8.2l0-0.1l-0.1,0
		c-0.3-0.1-0.6-0.2-0.9-0.3c-0.7-0.3-1.3-0.5-2.1-0.5l-0.1,0c-0.9,0-1.5,0.3-1.8,0.8l0,0.1l4.8,9.5c0.3,0.7,0.7,1.5,0.5,2.6
		c-0.2,1.1-2.5,4.8-3.2,5.3c-0.2,0.1-0.3,0.2-0.4,0.2c-0.1,0-0.3,0-0.1-0.6c0.4-1.5,1-5.1,0.9-6.3c-0.2-1.3-4.2-8-4.4-8.3l-0.1-0.1
		c-0.6-1-1.3-2.1-1.2-3.3c0-0.6,0.5-1,0.9-1.1c0.7-0.3,1.4-0.4,2.1-0.5c1.7-0.4,3.5-0.8,4.1-1.7c1.9-2.9,3.1-6,3.8-10.2
		c0-0.2,0.2-0.5,0.4-0.5c0.2,0,0.3,0.1,0.4,0.4c0.7,4-0.3,8.2-2.6,11.5c-0.1,0.2-0.2,0.6-0.2,0.9c0.1,0.3,0.4,0.6,0.4,0.6
		c0.9,0.6,4.3,0.3,6.7-1c1.9,0,3.6-0.3,5.3-0.6c0.5-0.1,1.1-0.2,1.6-0.3c0.2,0.1,0.3,0.2,0.3,0.4c-1.4,1.6-2.3,3.4-2.8,5.7
		c-0.4,0.4-0.8,0.8-1.3,1.2c-1.6,1.4-3.3,3-3.3,5.1c0,0,0,0.7,0.7,0.8c0.3,0,0.5-0.1,0.8-0.2c0.3-0.1,0.6-0.2,0.8-0.2
		c0.3,0,0.4,0.2,0.5,0.5l-1.8,2.6c-0.7,1.1-0.4,2.3-0.1,3.4c0.2,0.6,0.1,1.1,0.3,1.7c0.4,1.3,2,1.9,3.3,1.9c2.3-0.1,4.4-0.9,6.5-1.6
		c0.4-0.1,0.7-0.3,1.1-0.4c2.2-1,5.2-1.2,8.8-0.6c2.9-0.2,5-2.1,7.1-3.9c0.9,0,1.8,0.6,2.8,1.6c3.1,3.3,6.9,4.9,11.6,4.9
		c0.2,0,0.4,0,0.5,0l0.5,0c0.5-0.1,0.6-0.4,0.6-0.7c0-0.4-0.3-0.7-0.8-1l-2.6-1.4c-2.1-1.3-4.4-3-5.1-5.1c-0.7-2.3-2-4.6-2.9-6.1
		c-0.2-0.3-0.4-0.6-0.6-0.9c-0.4-0.5-0.8-1.1-1-1.7l0,0c2.9,1,4.5,3.2,6.4,6.7c1.4,2.6,5.2,5.5,8.8,5.5c0.5,0,0.9,0,1.4-0.1
		c0.4-0.1,0.6-0.3,0.7-0.7c0-0.3,0-0.6-0.3-0.7c-1-0.5-2.2-1.1-2.2-1.1c-2.6-1.5-4-4-5.5-6.4c-0.6-0.9-1.1-1.9-1.8-2.8
		c-0.4-0.6-1.1-1.2-1.7-1.8c-0.5-0.5-1-0.9-1.1-1.2c-2.3-6.4-4.9-13.9-5.5-22.2c-0.1-1.3-1-4.1-2-5.9c-3.3-5.4-11.3-14.7-11.7-15.1
		c-0.3-0.3-0.6-0.6-0.8-0.8l-0.2-0.2l-14.3-11.9c-0.6-0.4-1.1-0.8-1.6-1.1c2.1-2.8,4.9-6.1,8.4-9.4C291.8,75.8,306.8,70,323.9,70
		c17.2,0,32.2,5.8,44.6,17.4c4.2,3.9,7.3,7.8,9.6,10.9c-2.7,2.1-5.5,4.2-8.2,6.1c-5.7,4.1-11.6,8.4-16.7,14
		c-5,5.1-6.8,11.6-8.5,17.8c-0.3,0.9-0.5,1.8-0.8,2.7c-0.5,1.7-0.9,3.4-1.3,5.1c-2.3,9.2-4.6,18.3-13.8,24.2
		c-0.6,0.4-0.4,1.2,0.2,1.4c0.2,0.1,4.1,1.4,7.9-2.5c2.3-2.9,3.6-5.5,6.4-8.5c0.1-0.1,0.4-0.3,0.7-0.3c0.2,0.1,0.2,0.2,0.2,0.5
		c-0.4,1.2-1.1,2.2-1.8,3.2c-0.7,1-1.5,2.1-1.8,3.3c-0.9,2.6-3.3,4.8-5.5,6.6c0,0-0.3,0.2-0.5,0.5c-0.2,0.3-0.2,0.4-0.2,0.4
		c-0.1,0.6,0.4,0.9,1.3,1c0,0,0,0,0,0c5.1,0,8.8-3.6,12.3-7.2c0.2-0.2,0.3-0.2,0.6-0.2c0.2,0,0.4,0,0.6,0.1c0.2,0.1,0.8,0.7,1.2,1
		c1.2,1,2.3,2.1,3.9,2.4l0,0l0,0c1.9-0.3,3.6-0.5,5.3-0.5c0.5,0,1,0,1.4,0c1.9,0.6,3.7,1.3,5.5,1.9c1.3,0.5,2.6,1,3.9,1.4l0,0l0,0
		c1.7-0.1,2.9-1.7,3.8-3.1c0.4-1,0.2-2,0-2.9c-0.1-0.6-0.2-1.1-0.2-1.7c0.3-0.2,0.7-0.1,1.2-0.1c0.4,0.1,1,0,1.2,0
		c0.4-0.1,0.9-0.6,0.8-1.3c-0.3-1.7-1.2-2.8-2.1-4.1c-0.7-1.1-1.5-2.2-1.8-3.4c-0.6-1.6-1.8-2.9-2.9-4.1c-1.3-1.5-2.6-2.8-3-4.6
		c0,0-0.1-0.4,0-0.5c0.1-0.1,0.5,0,0.5,0c0.6,0.4,1.2,1,1.8,1.4c1.9,1.6,4,3.2,6.4,3.6c2.3,0.2,4.8,0.5,7.2,0.3
		c0.6-0.1,1-0.7,0.8-1.2c-1-2.1-2-4.3-2.6-6.7c-0.5-1.8-1.7-6.6-0.5-10.2c0.1-0.4,0.4-0.5,0.6-0.5c0,0,0,0,0.1,0
		c0.4,0.1,0.7,0.6,0.7,0.9l0,0.5c0.3,4.9,0.7,9.5,3.7,13.5c0.8,1.3,1.9,2,3.1,2.6c0.8,0.5,1.6,0.8,2.2,1.6
		C392,153.9,392.1,155.3,391.7,156.1z M290.5,160.3c0,0,0.7-0.3,1.4,0.1c0.7,0.3,0.4,2.1,0.3,2.3c0,0-0.1,1.1-0.6,1.5
		c-0.5,0.5-2.3,0.7-3.3,0.7c-1,0-1.3-0.2-1.5-0.5c-0.2-0.3,0.1-1,0.1-1C287.1,163.2,288.2,160.9,290.5,160.3z M288.4,141.5
		c0.3-1.2,0.6-1.4,0.9-2.3c0,0,0.7-1.6,1-2c0.7-1.1,1.7-1,1.7-1c0.3,0,1.1-0.1,2,1c1,1.3,0.8,1.2,1.1,1.7c0.3,0.5,0.6,0.9,1.5,1.9
		c0.9,0.9,1.8,2.8,2.1,3.9c0.3,1.1,0.2,2.1,0.1,3c-0.1,0.9-0.3,1.3-0.5,1.5c-0.1,0.2-0.3,0.7-1,0.7c-0.7,0-0.7-0.8-0.7-1
		c0,0-0.1-2.3-0.5-3.3c-0.5-1.1-2.9-4.1-4.2-4c-0.3,0-1.2,0.6-1.9,1.4c-0.8,1-0.8,1.2-1,1.3c-0.2,0.2-0.6,0.1-0.7-0.5
		C288.2,143.1,288.1,142.6,288.4,141.5z M361.4,144.8c-0.5-0.2-0.9-0.7-1.1-1.2c-0.3-0.6-0.6-1.1-1.3-1c-0.1,0,0,0-0.1,0
		c-0.7,0.1-1.2,0.4-1.7,0.8c-0.3,0.2-1.3,1-1.6,1.2c-1.4,1.2-2.9,2.5-3.2,4.2c-0.1,0.6-0.1,0.6-0.2,0.9c-0.1,0.6-0.2,1.2-0.7,1.5
		l0,0c-0.1,0-0.1,0-0.2,0c-0.2,0-0.4-0.1-0.6-0.2c-0.2-0.2-0.3-0.3-0.3-0.6c-0.3-2.9,0.7-5.5,2.8-7.4c1.3-1.1,2.4-2.5,3.4-3.8
		c0.5-0.6,1-1.3,1.6-1.9c0.4-0.4,1.1-0.1,2.2,1.1c0.5,0.5,1.9,3,2.6,4.6c0.2,0.7-0.1,1.3-0.1,1.3
		C362.4,144.8,361.9,145.1,361.4,144.8z M361.5,164.6c-0.2,0.4-0.8,0.6-1.5,0.6c-0.6,0-1.3-0.2-1.7-0.5c-0.9-0.7-1.5-1.8-1.5-3.2
		c0-0.3,0-0.7,0.4-1c0.2-0.1,0.3-0.1,0.6-0.1c0.9,0,2.3,0.6,3,1.5C360.9,162,362.1,163.5,361.5,164.6z"/>
	<path class="st1" d="M242.2,166.8c0.4,0.5,0.7,1.3,1.1,2.1c0.5,1.2,1,2.2,1.6,2.4c0.2,0.1,0.5,0.1,0.8,0.1c1.2,0,3-0.7,4.2-1.6
		c0.7-0.6,0.5-1,0.2-1.5c-0.1-0.2-0.2-0.4-0.3-0.6c-0.3-0.6-0.5-1.3-0.7-1.9c-0.3-1.2-0.6-2.2-1.9-2c-1.8,0.3-3.6,0.4-5.6,0.4
		c0,0-0.6,0-0.8,0.4c-0.2,0.5,0.3,1,0.8,1.5C241.7,166.2,242,166.5,242.2,166.8z"/>
	<path class="st1" d="M154.9,172.8c0.3,0.2,0.7,0.5,1.3,0.5c0.3,0,0.7-0.1,1.1-0.3c2-1,4-4.7,4.1-4.9c0.2-0.6-0.5-1.1-1.3-1.8
		l-0.1-0.1c-0.4-0.3-1.1-0.3-1.5,0.1c-0.3,0.2-0.6,0.4-1,0.6c-1,0.7-2.1,1.4-3.2,2.3c-0.4,0.3-0.6,1-0.7,1.5c0,0.4,0,0.7,0.2,0.9
		C153.9,171.8,154.7,172.7,154.9,172.8z"/>
	<path class="st1" d="M151,172.9c-0.1,0-0.1,0-0.2,0c-1.1,0.4-2.3,1.8-2.3,2.6c-0.3,3.6-0.4,3.9-1.3,5c-0.3,0.3-0.5,1-0.1,1.3
		c0.3,0.3,3.8,1.4,4.2,1.4l0.1,0c0.3-0.1,0.6-0.9,1.3-3.4c0.4-1.3,0.8-2.8,1.3-4.2c0-0.1,0-0.2-0.3-0.7
		C153.1,174.5,151.8,172.9,151,172.9z"/>
</g>
</svg>
