<?xml version="1.0" encoding="utf-8"?>
<!-- Generator: Adobe Illustrator 23.0.6, SVG Export Plug-In . SVG Version: 6.00 Build 0)  -->
<svg version="1.1" id="Layer_1" xmlns="http://www.w3.org/2000/svg" xmlns:xlink="http://www.w3.org/1999/xlink" x="0px" y="0px"
	 viewBox="0 0 216 216" style="enable-background:new 0 0 216 216;" xml:space="preserve">
<style type="text/css">
	.st0{fill:#FFFFFF;}
</style>
<g>
	<path class="st0" d="M166.2,113.3c-3.9-2.9-8.4-4.7-12.7-6.8c-2.5-1.2-3.2-2.6-2.6-5.3c0.5-2.4,1.1-4.8,1.4-7.3
		c0.7-5.3,0.1-10.2-4-14.1c-3.1-2.8-7-3.8-11-3.9c-9.8-0.1-19.1,2.3-28.3,5.2c-2,0.6-4,1.4-6.3,2.3c0.2-1.6,0.5-2.9,0.6-4.2
		c0.4-4.6,1.1-9.3,0.9-13.9c-0.3-7.5-5.6-12.2-13-12.3C84.3,52.9,78,54.3,72,57.1c-7.4,3.5-14.5,7.7-21.2,12.6
		c-8,5.8-15.1,12.5-21.3,20.1c-6,7.2-10.9,15.1-15,23.5c-2,4.1-3.9,8.1-4.7,12.6c-0.5,2.5-0.9,4.9-1.4,7.4c0,2.8,0,5.7,0,8.5
		c0.6,2.6,1,5.2,1.8,7.8c3,9.6,9.3,16.7,17.3,22.3c11.1,7.9,23.4,13.4,36.7,16.5c13.7,3.2,27.5,3.5,41.4,1.4
		c10-1.5,19.8-3.9,29.1-7.9c10.4-4.4,19.7-10.4,27.5-18.7c5.7-6,10.6-12.5,13.3-20.5C179.1,131.9,175.4,120.1,166.2,113.3z
		 M140.6,147.7c-5.1,9.7-13.1,16.5-23.1,20.9c-5.5,2.4-11.2,4.5-17,6.1c-6.3,1.7-12.7,2.8-17.6,2.5c-13,0-23.8-2.2-34-7
		c-6.1-2.9-11.7-6.7-15.8-12.2c-6.4-8.6-7.5-17.9-3.1-27.7c2.7-6,7.2-10.6,12.2-14.8c7.5-6.2,16.1-10.1,25.5-12.5
		c6.9-1.8,14-2.9,21.1-3.1c7.2-0.2,14.3,0.7,21.4,2.4c5.3,1.2,10.4,3.1,15,5.9c7.5,4.4,13.9,10,17.1,18.4
		C144.9,133.8,144.2,140.9,140.6,147.7z"/>
	<path class="st0" d="M197.1,49.9c-4.3-7.2-9.9-13.1-16.7-17.9c-7.8-5.4-16.4-8.8-25.8-10.1c-3.1-0.5-6.3-0.5-9.4-0.3
		c-3.5,0.2-5.6,2.6-5.8,6.1s1.4,5.9,4.8,6.7c2.5,0.6,5.1,0.7,7.6,1.1c11.1,1.7,20.8,6.3,28.4,14.8c6.6,7.4,10.2,16.1,11.3,25.9
		c0.3,2.8,0.2,5.7,1.8,8.2c1.9,2.9,6.1,3.8,9,2c1.2-0.7,1.9-1.7,2.4-2.8c0.7-1.4,1-3,1-4.6v-1.7C205.6,76.6,204.2,60.4,197.1,49.9z"
		/>
	<path class="st0" d="M176.4,74.3c-1.6-4.8-4.1-9.2-7.4-13c-5.5-6.1-12.3-10.1-20.3-12.3c-1.9-0.5-3.7-0.4-5.6,0.2
		c-4.2,1.4-5.8,7.9-2.4,10.7c1.8,1.5,4.3,2.2,6.6,3.1c6.7,2.4,11.9,6.6,14.9,13.1c1.2,2.6,1.9,5.3,3.1,7.9c1.5,3.1,4.4,4.1,7.8,3.2
		c1.6-0.4,2.9-1.3,3.7-2.6c1.1-1.7,1.4-3.8,0.8-5.8C177.3,77.3,176.9,75.8,176.4,74.3z"/>
	<path class="st0" d="M75,120.6c-7.1,0.8-13,4.1-17.7,9.6c-6.2,7.3-5.2,18.6,2.3,24.6c4.5,3.6,9.7,5.3,15.9,5.3
		c4.3,0.1,8.9-1,13.1-3.4c6.3-3.5,10.7-8.4,11.6-15.8c0.7-5.4-0.9-10.2-4.8-13.9C89.7,121.6,82.7,119.8,75,120.6z"/>
</g>
</svg>
