<?xml version="1.0" encoding="utf-8"?>
<!-- Generator: Adobe Illustrator 23.0.2, SVG Export Plug-In . SVG Version: 6.00 Build 0)  -->
<svg version="1.1" id="Layer_1" xmlns="http://www.w3.org/2000/svg" xmlns:xlink="http://www.w3.org/1999/xlink" x="0px" y="0px"
	 viewBox="0 0 1080 1080" style="enable-background:new 0 0 1080 1080;" xml:space="preserve">
<style type="text/css">
	.st0{fill:#FFFFFF;}
</style>
<g>
	<g>
		<polygon class="st0" points="506.5,228 322.5,228 369.5,284 369.5,772 319.5,839 740.5,839 812.5,751 506.5,751 		"/>
		<path class="st0" d="M352,350.3c-3.1,2.9-6.3,5.8-9.3,8.9c-53.7,53.6-83.2,125-83.2,200.8s29.5,147.2,83.2,200.8
			c2.5,2.5,5.1,5,7.8,7.4l1.5-2.1V703c-30.8-41.1-47.5-90.7-47.5-143c0-52.2,16.7-101.9,47.5-143V350.3z"/>
		<path class="st0" d="M712.4,391c45.1,45.1,70,105.1,70,169c0,63.8-24.9,123.8-70,169c-1.5,1.5-3.1,3-4.7,4.5h60.5
			c38.3-49.5,59.1-109.9,59.1-173.5c0-75.8-29.5-147.2-83.2-200.8C690.6,305.6,619.3,276,543.5,276c-6.5,0-13,0.2-19.5,0.7v45.1
			c6.5-0.5,13-0.8,19.5-0.8C607.3,321,667.3,345.9,712.4,391z"/>
	</g>
</g>
</svg>
