<?xml version="1.0" encoding="utf-8"?>
<!-- Generator: Adobe Illustrator 23.0.6, SVG Export Plug-In . SVG Version: 6.00 Build 0)  -->
<svg version="1.1" id="Layer_1" xmlns="http://www.w3.org/2000/svg" xmlns:xlink="http://www.w3.org/1999/xlink" x="0px" y="0px"
	 viewBox="0 0 87.9 70.9" style="enable-background:new 0 0 87.9 70.9;" xml:space="preserve">
<style type="text/css">
	.st0{fill:#FFFFFF;}
</style>
<title>flogo-Hex-RGB-MedGrey-58</title>
<path class="st0" d="M67.4,6.4H20.4c-3,0-5.5,2.5-5.5,5.5v46.9c0,3,2.5,5.5,5.5,5.5H46V42h-7.5v-8.8H46v-6.5
	c0-7.5,4.6-11.5,11.2-11.5c2.3,0,4.6,0.1,6.8,0.3v7.8h-4.7c-3.6,0-4.3,1.8-4.3,4.3v5.6h8.7L62.6,42H55v22.4h12.5
	c3,0,5.5-2.5,5.5-5.5V12C72.9,8.9,70.5,6.4,67.4,6.4z"/>
</svg>
