<?xml version="1.0" encoding="utf-8"?>
<!-- Generator: Adobe Illustrator 23.0.4, SVG Export Plug-In . SVG Version: 6.00 Build 0)  -->
<svg version="1.1" id="Layer_1" xmlns="http://www.w3.org/2000/svg" xmlns:xlink="http://www.w3.org/1999/xlink" x="0px" y="0px"
	 viewBox="0 0 300 300" style="enable-background:new 0 0 300 300;" xml:space="preserve">
<style type="text/css">
	.st0{fill:#ffffff;}
</style>
<g>
	<path class="st0" d="M96.9,259c0-8.7,0-17.1,0-26.1c-17.7,0-35.1,0-52.9,0c0-1.2,0-1.9,0-2.8c0-49.1,0-98,0-147.1
		c0-1.6,0.3-2.8,0.6-4.4c3.7-11.8,7.8-23.6,11.8-35.5c0.6-1.6,1.2-2.2,2.8-2.2c64.7,0,129.1,0,193.7,0c0.6,0,1.2,0,2.2,0
		c0,0.9,0,1.9,0,2.8c0,42.3,0,84.3,0,126.6c0,1.9-0.6,3.1-1.9,4.4c-18.7,18.7-37.3,37.3-56,56c-1.2,1.2-2.5,1.9-4.4,1.9
		c-11.5,0-22.7,0-34.2,0c-2.2,0-3.7,0.6-5.3,2.2c-7.5,7.8-15.2,15.2-22.7,22.7c-0.6,0.6-1.9,1.6-2.8,1.6c-10.3,0-20.2,0-30.5,0
		C97.6,259.3,97.2,259,96.9,259z M76.7,61.2c0,46.3,0,92.7,0,139c15.5,0,30.8,0,46.3,0c0,8.7,0,17.4,0,26.4c0.6-0.6,1.2-0.9,1.6-1.6
		c7.8-7.8,15.5-15.5,23.3-23.3c1.2-1.2,2.2-1.6,3.7-1.6c16.2,0,32.3,0,48.5,0c1.2,0,2.8-0.6,3.4-1.6c10-10,20.2-19.9,30.2-29.9
		c1.2-1.2,1.6-2.2,1.6-3.7c0-33.9,0-67.5,0-101.4c0-0.9,0-1.6,0-2.5C182.5,61.2,129.6,61.2,76.7,61.2z"/>
	<path class="st0" d="M149.5,101c0,19.6,0,39.2,0,58.8c-6.5,0-13.1,0-19.6,0c0-19.6,0-39.2,0-58.8C136.4,101,142.7,101,149.5,101z"
		/>
	<path class="st0" d="M202.1,160.1c-6.5,0-12.8,0-19.3,0c0-19.6,0-39.2,0-58.8c6.2,0,12.8,0,19.3,0
		C202.1,120.6,202.1,140.2,202.1,160.1z"/>
</g>
</svg>
