<?xml version="1.0" encoding="utf-8"?>
<!-- Generator: Adobe Illustrator 23.0.6, SVG Export Plug-In . SVG Version: 6.00 Build 0)  -->
<svg version="1.1" id="레이어_1" xmlns="http://www.w3.org/2000/svg" xmlns:xlink="http://www.w3.org/1999/xlink" x="0px"
	 y="0px" viewBox="0 0 300 300" style="enable-background:new 0 0 300 300;" xml:space="preserve">
<style type="text/css">
	.st0{fill:#FFFFFF;}
</style>
<g id="XMLID_148_">
	<path id="XMLID_156_" class="st0" d="M82.8,191.2c-0.4,0-0.8-0.1-1-0.4c-0.3-0.3-0.4-0.7-0.4-1v-38.1H69.5v41
		c0,1.9,0.7,3.8,2.2,5.2c1.4,1.4,3.3,2.2,5.2,2.2H111v-8.8H82.8z"/>
	<path id="XMLID_153_" class="st0" d="M124.7,151.7c-1.9,0-3.8,0.7-5.2,2.2c-1.4,1.4-2.2,3.3-2.2,5.2v33.6c0,1.9,0.7,3.8,2.2,5.2
		c1.4,1.4,3.3,2.2,5.2,2.2h36.5v-8.8h-30.6c-0.4,0-0.8-0.1-1-0.4c-0.3-0.3-0.4-0.7-0.4-1v-7.7l28.2-4.4c1.6-0.3,3.2-1.1,4.3-2.5
		c1.2-1.4,1.7-3.1,1.7-4.7V159c0-1.9-0.7-3.8-2.1-5.2c-1.4-1.4-3.3-2.2-5.2-2.2H124.7z M151.6,168.8c0,0.4-0.1,0.7-0.4,1
		c-0.2,0.3-0.6,0.5-0.9,0.5l-21.1,3.1V162c0-0.4,0.1-0.8,0.4-1c0.3-0.3,0.7-0.4,1-0.4h19.5c0.4,0,0.8,0.1,1,0.4
		c0.3,0.3,0.4,0.7,0.4,1V168.8z"/>
	<path id="XMLID_152_" class="st0" d="M212.4,151.7l-15.3,36c-1.3,3.2-2.3,3.5-4.4,3.5h-6.8l-3.4-39.5h-12.5l4.1,48.3h24.5
		c1.8,0,3.6-0.5,5.2-1.6c1.6-1.1,2.8-2.5,3.5-4.2l18.1-42.6H212.4z"/>
	<path id="XMLID_151_" class="st0" d="M272.4,151.7l-15.3,36c-1.3,3.2-2.3,3.5-4.4,3.5h-6.8l-3.4-39.5H230l4.1,48.3h24.5
		c1.8,0,3.6-0.5,5.2-1.6c1.6-1.1,2.8-2.5,3.5-4.2l18-42.6H272.4z"/>
	<polygon id="XMLID_150_" class="st0" points="14.6,100 14.6,138.6 69.5,138.6 69.5,119.3 81.4,119.3 81.4,138.6 285.4,138.6 
		285.4,100 	"/>
	<path id="XMLID_149_" class="st0" d="M47.7,175.9L47.7,175.9l15.1-24.2H49.6l-11.9,19c-0.1,0.2-0.3,0.4-0.6,0.5
		c-0.2,0.1-0.5,0.2-0.8,0.2h-9.9v-19.8H14.6V200h11.9v-19.8h9.9c0.3,0,0.5,0.1,0.8,0.2c0.2,0.1,0.4,0.3,0.6,0.5l11.9,19h13.1
		L47.7,175.9z"/>
</g>
</svg>
