<?xml version="1.0" encoding="utf-8"?>
<!-- Generator: Adobe Illustrator 24.0.1, SVG Export Plug-In . SVG Version: 6.00 Build 0)  -->
<svg version="1.1" id="Layer_1" xmlns="http://www.w3.org/2000/svg" xmlns:xlink="http://www.w3.org/1999/xlink" x="0px" y="0px"
	 viewBox="0 0 150 150" style="enable-background:new 0 0 150 150;" xml:space="preserve">
<style type="text/css">
	.st0{fill:#FFFFFF;}
</style>
<g>
	<path class="st0" d="M34.64,115.07c0-0.17,0-0.34-0.04-0.51c-0.05-0.26-0.21-0.44-0.49-0.44c-1.02-0.01-2.05-0.01-3.07,0.01
		c-0.27,0-0.43,0.18-0.46,0.46c-0.02,0.13-0.01,0.27-0.01,0.41c0,2.37,0,4.74,0,7.11c0,0.14-0.01,0.27,0.01,0.41
		c0.03,0.3,0.18,0.48,0.49,0.49c1.01,0.02,2.01,0.02,3.02,0c0.3,0,0.46-0.17,0.52-0.47c0.03-0.17,0.03-0.34,0.03-0.51
		c0-1.14,0-2.28,0-3.43C34.64,117.42,34.64,116.24,34.64,115.07z"/>
	<path class="st0" d="M117.51,114.13c-0.94-0.02-1.87-0.01-2.81,0c-0.32,0-0.41,0.08-0.41,0.39c-0.01,0.95-0.01,1.91,0,2.86
		c0.01,0.34,0.09,0.39,0.45,0.4c0.44,0.01,0.88,0,1.33,0c0.46,0,0.92,0.01,1.38,0c0.53-0.01,0.69-0.18,0.7-0.72
		c0.01-0.75,0.01-1.5,0-2.25C118.13,114.35,117.96,114.14,117.51,114.13z"/>
	<path class="st0" d="M94.71,114.77c-0.03-0.36-0.18-0.52-0.54-0.55c-0.15-0.01-0.31-0.01-0.46-0.01c-0.84,0-1.67,0-2.51,0
		c-0.5,0-0.54,0.05-0.56,0.56c0,0.12,0,0.24,0,0.36c0,1.14,0,2.28,0,3.43c0,1.14,0,2.28,0,3.43c0,0.14,0,0.27,0,0.41
		c0.02,0.46,0.06,0.5,0.5,0.51c0.31,0.01,0.61,0,0.92,0c0.66,0,1.33,0.01,1.99-0.01c0.47-0.01,0.63-0.19,0.65-0.66
		c0-0.07,0-0.14,0-0.2c0-2.32,0-4.64,0-6.96C94.71,114.98,94.72,114.88,94.71,114.77z"/>
	<path class="st0" d="M132.61,15.7H16.66C10.77,15.7,6,20.47,6,26.36v97.78c0,5.89,4.77,10.66,10.66,10.66h115.96
		c5.89,0,10.66-4.77,10.66-10.66V26.36C143.27,20.47,138.5,15.7,132.61,15.7z M13.59,90.18c-0.54-0.57-0.82-1.25-0.83-2.03
		c0-0.15,0-0.31,0-0.46c0-20.5,0-41,0-61.5c0-0.36,0.01-0.72,0.09-1.06c0.33-1.39,1.52-2.35,2.95-2.4c0.15-0.01,0.31,0,0.46,0
		c30.79,0,61.59,0,92.38,0c0.22,0,0.44,0,0.66,0c0,0.03,0.01,0.06,0.01,0.08c-0.61,0.14-1.22,0.29-1.84,0.43
		c-4.61,0.99-9.18,2.16-13.67,3.61c-7.85,2.53-15.62,5.28-23.35,8.14c-8.05,2.98-16.08,6.01-24.12,9.03
		c-2.53,0.95-5.06,1.93-7.58,2.92c-0.3,0.12-0.54,0.1-0.82-0.04c-1.04-0.52-2.08-1.03-3.13-1.51c-0.68-0.31-0.88-0.15-0.86,0.61
		c0,0.1,0.01,0.2,0.01,0.31c0,0.02-0.01,0.03-0.04,0.07c-0.24,0.18-0.53,0.09-0.81,0.08c-0.22-0.01-0.44-0.02-0.65,0.02
		c-0.51,0.12-1.02,0.27-1.52,0.42c-0.13,0.04-0.29,0.11-0.34,0.21c-0.17,0.37-0.51,0.48-0.83,0.62c-0.22,0.1-0.41,0.21-0.45,0.5
		c-0.05,0.29-0.3,0.45-0.56,0.55c-0.28,0.1-0.41,0.3-0.55,0.56c-0.3,0.55-0.51,1.11-0.53,1.74c0,0.12-0.11,0.24-0.18,0.36
		c-0.1,0.2-0.25,0.38-0.3,0.59c-0.09,0.34-0.27,0.55-0.57,0.74c-2,1.24-3.98,2.5-5.97,3.76c-0.63,0.4-0.96,1.15-0.8,1.89
		c0.11,0.52,0.23,1.03,0.37,1.54c0.13,0.47,0.34,0.57,0.8,0.39c0.24-0.09,0.47-0.21,0.69-0.34c1.43-0.91,3.01-1.52,4.52-2.27
		c0.95-0.47,1.92-0.89,2.86-1.36c0.3-0.15,0.52-0.13,0.79,0.07c0.93,0.69,2.03,1.05,3.15,1.06c1.15,0.01,2.21,0.32,3.3,0.59
		c1.19,0.3,2.26,0.82,3.24,1.57c1.19,0.91,2.59,1.35,4.06,1.56c0.34,0.05,0.61,0.12,0.82,0.42c0.32,0.47,0.85,0.53,1.36,0.58
		c0.2,0.02,0.41-0.01,0.61-0.01c1,0,2.01-0.05,3.01,0.02c0.95,0.06,1.8-0.13,2.56-0.69c0.39-0.29,0.76-0.33,1.23-0.24
		c2.24,0.43,4.48,0.86,6.68,1.46c0.72,0.2,1.43,0.42,2.1,0.78c0.69,0.36,1.46,0.47,2.22,0.54c1.13,0.1,2.28,0.15,3.41,0.22
		c0.1,0.01,0.2,0.04,0.3,0.06c0.01,0.08,0.04,0.15,0.03,0.21c-0.08,0.66-0.19,1.31-0.24,1.97c-0.02,0.3-0.14,0.46-0.4,0.59
		c-1.73,0.85-3.44,1.74-5.18,2.56c-2.96,1.39-5.93,2.76-8.91,4.12c-4.87,2.23-9.81,4.27-14.84,6.1c-4.32,1.57-8.69,3-13.13,4.21
		c-0.56,0.15-1.12,0.28-1.67,0.46c-0.94,0.3-1.08,0.75-0.51,1.56c0.28,0.4,0.58,0.8,0.83,1.23c0.3,0.5,0.74,0.63,1.27,0.55
		c0.55-0.08,1.11-0.18,1.65-0.32c3.87-0.94,7.7-2.03,11.48-3.3c4.11-1.37,8.13-2.95,12.08-4.73c3.29-1.48,6.62-2.89,9.93-4.34
		c2.11-0.93,4.2-1.88,6.3-2.82c0.15-0.07,0.3-0.12,0.5-0.2c0.02,0.17,0.04,0.28,0.05,0.39c0.01,0.73,0,1.47,0.02,2.2
		c0.01,0.25-0.07,0.45-0.2,0.67c-1.12,1.81-2.23,3.63-3.34,5.45c-0.16,0.26-0.33,0.44-0.63,0.54c-0.76,0.27-1.31,0.84-1.83,1.43
		c-0.11,0.12-0.21,0.25-0.41,0.48c-0.07-0.42-0.14-0.73-0.17-1.04c-0.02-0.24-0.02-0.48,0-0.72c0.04-0.47-0.14-0.83-0.48-1.13
		c-0.19-0.17-0.4-0.32-0.61-0.46c-0.48-0.3-0.99-0.36-1.5-0.08c-0.46,0.26-0.93,0.5-1.38,0.77c-0.45,0.28-0.87,0.6-1.32,0.88
		c-0.85,0.52-1.1,1.26-0.88,2.19c0.27,1.16,0.56,2.32,0.82,3.48c0.05,0.21,0.09,0.44,0.05,0.64c-0.16,0.75,0.04,1.41,0.43,2.04
		c0.08,0.13,0.17,0.25,0.29,0.42c-0.2,0.23-0.39,0.47-0.6,0.68c-0.09,0.09-0.23,0.12-0.36,0.15c-0.11,0.03-0.24,0.01-0.36,0.01
		c-12.91,0-25.81,0-38.72,0C15.07,91.19,14.25,90.88,13.59,90.18z M43.1,101.11c0.43-0.57,0.86-1.15,1.27-1.73
		c0.14-0.2,0.3-0.29,0.55-0.29c2.66,0.01,5.32,0.01,7.98,0.01c0.08,0,0.17,0.02,0.28,0.03c0,0.77,0,1.52,0,2.34
		c-2.31,0-4.6,0-6.92,0c0,0.39,0,0.72,0,1.1c1.56,0,3.08,0,4.65,0c0,0.7,0,1.35,0,2.08c-1.55,0-3.09,0-4.65,0c0,0.42,0,0.78,0,1.2
		c2.31,0.02,4.6,0,6.92,0.01c0,0.78,0,1.53,0,2.27c-0.35,0.11-9.09,0.16-10.23,0.05c-0.01-0.12-0.04-0.25-0.04-0.38
		c0-2.03,0-4.06,0-6.09C42.91,101.49,42.96,101.3,43.1,101.11z M36.68,108.21c-0.73,0-1.48,0-2.26,0c-2-3-4.02-6.01-6.06-9.06
		c0.14-0.03,0.2-0.05,0.26-0.05c1.04,0,2.08,0.01,3.12-0.01c0.3-0.01,0.41,0.17,0.55,0.37c1.03,1.57,2.05,3.14,3.08,4.7
		c0.09,0.14,0.19,0.28,0.33,0.48c0.12-0.17,0.23-0.31,0.33-0.45c1.04-1.56,2.08-3.12,3.1-4.69c0.2-0.31,0.42-0.43,0.78-0.42
		c1,0.03,2.01,0.01,3.02,0.01C42.82,99.5,37.79,106.82,36.68,108.21z M22.46,114.73c-0.03-0.45-0.2-0.61-0.65-0.61
		c-0.85-0.01-1.71-0.01-2.56,0c-0.44,0.01-0.61,0.17-0.64,0.62c-0.01,0.14-0.01,0.27-0.01,0.41c0,2.29,0,4.57,0,6.86
		c0,0.12,0,0.24,0,0.36c0.03,0.47,0.2,0.64,0.67,0.65c0.84,0.01,1.67,0.01,2.51,0c0.43-0.01,0.62-0.19,0.65-0.62
		c0.02-0.36,0-0.72,0.01-1.07c0.01-0.42,0.06-0.49,0.47-0.49c0.63-0.01,1.26-0.01,1.89,0c0.36,0.01,0.43,0.07,0.42,0.42
		c-0.02,0.71-0.02,1.43-0.1,2.14c-0.13,1.12-1,1.89-2.14,1.99c-1.62,0.14-3.23,0.13-4.85,0.01c-1.58-0.11-2.29-1.19-2.32-2.43
		c-0.03-1.48-0.01-2.97-0.01-4.45c0,0,0,0-0.01,0c0-1.33,0-2.66,0-3.99c0-0.27,0.01-0.55,0.06-0.81c0.26-1.24,0.99-1.92,2.26-1.97
		c1.57-0.05,3.14-0.06,4.7,0c1.39,0.05,2.18,0.85,2.32,2.25c0.05,0.51,0.07,1.02,0.08,1.53c0.01,0.38-0.04,0.43-0.4,0.43
		c-0.66,0.01-1.33,0.01-1.99,0c-0.33-0.01-0.37-0.05-0.38-0.4C22.46,115.27,22.48,115,22.46,114.73z M25.68,108.25
		c-2.32,0-4.64,0-6.96,0c-0.14,0-0.29-0.02-0.51-0.04c0.14-0.15,0.22-0.26,0.32-0.34c0.61-0.57,1.23-1.14,1.82-1.72
		c0.21-0.21,0.43-0.28,0.73-0.28c1.19,0.01,2.39,0.01,3.58,0c0.17,0,0.33-0.01,0.53-0.02c0-1.45,0-2.88,0-4.33
		c-2.06,0-4.09,0-6.18,0c-0.01,0.2-0.03,0.38-0.03,0.56c0,1.19-0.01,2.39,0,3.58c0,0.3-0.08,0.51-0.31,0.71
		c-0.5,0.44-0.97,0.91-1.46,1.36c-0.26,0.25-0.31,0.25-0.62,0.05c-0.55-0.36-0.88-0.87-0.89-1.53c-0.02-1.74-0.02-3.48,0-5.22
		c0.01-0.68,0.36-1.2,0.96-1.53c0.45-0.26,0.95-0.39,1.47-0.39c2.64-0.01,5.29,0,7.93,0c0.14,0,0.27,0.02,0.41,0.03
		c0.36,0.03,0.62,0.18,0.82,0.51c0.31,0.51,0.67,0.99,1.02,1.47c0.16,0.22,0.23,0.44,0.22,0.71c-0.01,1.31,0,2.63,0,3.94
		c0,1.45-0.76,2.29-2.2,2.44C26.12,108.24,25.9,108.25,25.68,108.25z M37.42,122.62c0,0.34-0.04,0.68-0.12,1.01
		c-0.24,0.99-1.01,1.65-2.03,1.74c-1.8,0.16-3.61,0.16-5.41,0c-1.1-0.1-1.95-0.97-2.06-2.07c-0.02-0.19-0.03-0.37-0.03-0.56
		c0-2.78-0.01-5.56,0-8.34c0-0.35,0.04-0.72,0.14-1.06c0.29-0.95,0.97-1.45,1.93-1.59c0.24-0.03,0.48-0.04,0.71-0.04
		c1.35,0,2.69-0.01,4.04,0c0.34,0,0.69,0.01,1.01,0.09c1.13,0.28,1.8,1.2,1.81,2.48c0.01,1.43,0,2.86,0,4.3c0,0,0,0,0,0
		C37.43,119.92,37.44,121.27,37.42,122.62z M49.73,124.6c0,0.1,0,0.2,0,0.31c-0.02,0.42-0.05,0.46-0.48,0.46
		c-0.55,0.01-1.09-0.01-1.64,0.01c-0.32,0.01-0.5-0.12-0.64-0.39c-0.84-1.56-1.69-3.11-2.54-4.67c-0.43-0.79-0.86-1.59-1.3-2.38
		c-0.07-0.13-0.17-0.24-0.25-0.37c-0.05,0.01-0.1,0.02-0.15,0.03c-0.02,0.21-0.05,0.42-0.05,0.63c0,2.15,0,4.3,0,6.45
		c0,0.7,0,0.7-0.71,0.7c-0.48,0-0.95,0.01-1.43,0c-0.43-0.01-0.45-0.04-0.47-0.48c0-0.07,0-0.14,0-0.2c0-4.08,0-8.15,0-12.23
		c0-0.7,0-0.7,0.7-0.71c0.48,0,0.96,0.02,1.43-0.01c0.32-0.01,0.5,0.1,0.65,0.38c0.5,0.93,1.01,1.86,1.52,2.78
		c0.77,1.41,1.53,2.81,2.3,4.22c0.08,0.14,0.17,0.27,0.26,0.41c0.26-0.12,0.19-0.31,0.2-0.47c0.01-0.63,0-1.26,0-1.89
		c0-1.62,0-3.24,0-4.86c0-0.54,0.02-0.55,0.54-0.56c0.55,0,1.09-0.01,1.64,0c0.37,0.01,0.41,0.05,0.43,0.41c0.01,0.12,0,0.24,0,0.36
		C49.73,116.55,49.73,120.57,49.73,124.6z M61.36,113.83c-0.01,0.34-0.05,0.38-0.39,0.39c-0.73,0.01-1.47,0-2.2,0
		c-0.64,0-0.67,0.02-0.67,0.66c0,3.24,0,6.48,0,9.72c0,0.15,0,0.31,0,0.46c0,0.21-0.1,0.31-0.31,0.31c-0.72,0-1.43,0-2.15,0
		c-0.29,0-0.33-0.18-0.32-0.41c0-0.77,0-1.53,0-2.3c0-0.94,0-1.88,0-2.81c0-1.59,0-3.17,0-4.76c0-0.1,0-0.2,0-0.31
		c-0.01-0.52-0.05-0.56-0.55-0.56c-0.75-0.01-1.5,0-2.25,0c-0.43,0-0.46-0.03-0.46-0.47c-0.01-0.49-0.01-0.99,0-1.48
		c0-0.48,0.02-0.51,0.53-0.51c2.22,0,4.43,0,6.65,0c0.58,0,1.16-0.01,1.74,0c0.34,0.01,0.39,0.05,0.4,0.38
		C61.37,112.7,61.37,113.26,61.36,113.83z M59.85,105.09c-0.23-0.19-0.34-0.39-0.33-0.69c0.02-0.44,0.01-0.88,0.01-1.4
		c1.24-0.02,2.44,0,3.66-0.01c0.11-0.52,0.06-0.99,0.04-1.49c-1.73,0-3.44,0-5.21,0c0,2.24,0,4.46,0,6.72c-1.12,0-2.18,0-3.28,0
		c0-3.03,0-6.02,0-9.05c0.13-0.02,0.26-0.04,0.39-0.04c2.97,0,5.93,0,8.9,0c0.5,0,0.99,0.08,1.43,0.31
		c0.61,0.31,0.96,0.81,0.97,1.51c0.01,0.72,0,1.43,0,2.15c0.01,0.53-0.22,0.94-0.66,1.19c-0.37,0.2-0.78,0.32-1.18,0.46
		c-0.15,0.05-0.32,0.07-0.58,0.12c1.38,1.14,2.68,2.21,3.97,3.28c-0.01,0.03-0.02,0.06-0.03,0.1c-0.13,0.01-0.26,0.03-0.39,0.03
		c-1.18,0-2.35-0.01-3.53,0.01c-0.29,0-0.52-0.08-0.74-0.27C62.15,107.02,61,106.05,59.85,105.09z M72.36,125.37
		c-0.09,0-0.17,0-0.26,0c-2.49,0-4.98,0-7.46,0c-0.12,0-0.24,0-0.36-0.01c-0.16-0.01-0.25-0.1-0.26-0.26
		c-0.01-0.14-0.01-0.27-0.01-0.41c0-2.05,0-4.09,0-6.14c0-2.03,0-4.06,0-6.09c0-0.14,0-0.27,0-0.41c0-0.21,0.11-0.31,0.32-0.31
		c0.1,0,0.2,0,0.31,0c2.42,0,4.84,0,7.26,0c0.09,0,0.17,0,0.26,0c0.25-0.01,0.38,0.1,0.38,0.36c0,0.55,0.01,1.09,0,1.64
		c-0.01,0.32-0.07,0.37-0.41,0.39c-0.24,0.01-0.48,0-0.72,0c-1.24,0-2.49,0-3.73,0c-0.14,0-0.27,0-0.41,0.01
		c-0.35,0.03-0.43,0.09-0.44,0.43c-0.02,0.72-0.02,1.43,0,2.15c0.01,0.39,0.09,0.44,0.52,0.45c1.31,0.01,2.62,0,3.94,0
		c0.14,0,0.27,0,0.41,0c0.21,0,0.32,0.1,0.32,0.31c0,0.58,0,1.16,0,1.74c0,0.25-0.16,0.31-0.37,0.31c-0.41,0-0.82,0-1.23,0
		c-1.01,0-2.01,0-3.02,0c-0.5,0-0.56,0.06-0.57,0.56c-0.01,0.77-0.01,1.53,0,2.3c0.01,0.48,0.07,0.54,0.58,0.56
		c0.44,0.01,0.89,0.01,1.33,0.01c1.14,0,2.28,0,3.43,0c0.52,0,0.55,0.04,0.56,0.55c0,0.49,0,0.99,0,1.48
		C72.73,125.25,72.62,125.38,72.36,125.37z M71.35,108.21c-1.4-2.99-2.8-6-4.23-9.07c0.16-0.02,0.25-0.04,0.34-0.05
		c0.9,0,1.81,0.01,2.71-0.01c0.29-0.01,0.42,0.11,0.53,0.36c0.53,1.23,1.08,2.46,1.63,3.69c0.07,0.15,0.14,0.29,0.26,0.54
		c0.74-1.58,1.44-3.06,2.14-4.56c0.77,0,1.51,0,2.3,0c0.7,1.5,1.41,3.01,2.15,4.61c0.33-0.53,0.5-1.06,0.74-1.55
		c0.23-0.49,0.44-1,0.67-1.49c0.23-0.51,0.46-1.02,0.7-1.56c1.03,0,2.06,0,3.16,0c-1.42,3.06-2.81,6.06-4.22,9.08
		c-0.81,0-1.56,0-2.34,0c-0.7-1.49-1.4-2.98-2.15-4.58c-0.8,1.58-1.47,3.09-2.21,4.58C72.81,108.21,72.12,108.21,71.35,108.21z
		 M85.1,113.51c0,3.65,0,7.29,0,10.94c0,0.1,0,0.2,0,0.31c0,0.61,0,0.61-0.59,0.61c-0.49,0-0.99-0.02-1.48,0.01
		c-0.4,0.03-0.63-0.12-0.81-0.47c-0.63-1.19-1.28-2.37-1.93-3.55c-0.62-1.14-1.24-2.27-1.86-3.41c-0.08-0.14-0.18-0.27-0.27-0.4
		c-0.04,0.01-0.08,0.02-0.12,0.03c-0.02,0.21-0.07,0.41-0.07,0.62c-0.01,2.1,0,4.19,0,6.29c0,0.1,0,0.2,0,0.31
		c-0.01,0.55-0.02,0.57-0.58,0.57c-0.55,0-1.09,0.01-1.64,0c-0.33-0.01-0.37-0.05-0.39-0.39c-0.01-0.1,0-0.2,0-0.31
		c0-4.07,0-8.15,0-12.22c0-0.69,0-0.69,0.71-0.69c0.49,0,0.99,0.01,1.48,0c0.29-0.01,0.47,0.1,0.61,0.36
		c0.79,1.47,1.59,2.93,2.39,4.4c0.47,0.87,0.94,1.74,1.42,2.6c0.08,0.15,0.14,0.34,0.43,0.43c0.01-0.24,0.03-0.43,0.03-0.63
		c0-2.08,0-4.16,0-6.24c0-0.12,0-0.24,0-0.36c0-0.56,0.01-0.57,0.57-0.57c0.53,0,1.06,0,1.58,0c0.49,0,0.51,0.02,0.51,0.53
		C85.1,112.69,85.1,113.1,85.1,113.51z M84.91,108.24c-0.95-0.03-1.91-0.01-2.94-0.01c0.1-0.18,0.17-0.31,0.25-0.42
		c1.99-2.79,3.99-5.57,5.97-8.37c0.18-0.25,0.36-0.36,0.67-0.35c0.54,0.02,1.09,0.03,1.64,0c0.35-0.02,0.55,0.11,0.75,0.4
		c1.53,2.24,3.08,4.46,4.62,6.69c0.4,0.57,0.8,1.15,1.19,1.72c0.06,0.08,0.1,0.17,0.18,0.3c-0.17,0.01-0.28,0.02-0.39,0.02
		c-0.95,0-1.91-0.01-2.86,0.01c-0.29,0.01-0.46-0.1-0.62-0.34c-1.13-1.69-2.27-3.36-3.41-5.04c-0.1-0.15-0.22-0.3-0.36-0.51
		c-0.13,0.17-0.24,0.31-0.34,0.46c-1.13,1.64-2.27,3.28-3.37,4.94C85.62,108.13,85.35,108.25,84.91,108.24z M97.97,91.22
		c-3.9,0-7.73,0-11.58,0c0.02-0.1,0.02-0.18,0.05-0.26c0.45-1.16,0.91-2.31,1.37-3.47c0.33-0.81,0.88-1.45,1.57-1.97
		c1.08-0.82,2.25-1.47,3.46-2.07c2.05-1,4.09-2.02,6.13-3.04c0.35-0.17,0.68-0.37,1.02-0.56c0.02,0.03,0.04,0.06,0.06,0.09
		c-1.45,1.72-3.38,2.83-5.25,4.09C95.86,86.42,96.91,88.79,97.97,91.22z M97.57,122.19c0,0.45-0.08,0.92-0.19,1.36
		c-0.24,0.88-0.84,1.43-1.71,1.67c-0.34,0.09-0.7,0.15-1.06,0.15c-2.06,0.01-4.12,0.01-6.19,0.01c-0.1,0-0.2,0-0.31-0.01
		c-0.16-0.01-0.25-0.09-0.26-0.26c-0.01-0.14-0.01-0.27-0.01-0.41c0-2.06,0-4.13,0-6.19c0-2.03,0-4.06,0-6.09
		c0-0.14,0-0.27,0.01-0.41c0.01-0.16,0.1-0.25,0.26-0.26c0.12-0.01,0.24-0.01,0.36-0.01c2.03,0,4.06,0,6.08,0
		c0.3,0,0.61,0.04,0.91,0.1c1.13,0.23,1.83,0.97,2.01,2.1c0.06,0.4,0.09,0.81,0.1,1.22C97.59,117.51,97.59,119.85,97.57,122.19z
		 M98.99,101.47c-1.42,0-2.79,0-4.19,0c0-0.8,0-1.54,0-2.28c0.37-0.12,11.35-0.17,12.5-0.05c-0.18,0.27-0.32,0.47-0.47,0.68
		c-0.3,0.43-0.62,0.86-0.9,1.3c-0.16,0.26-0.35,0.36-0.66,0.35c-0.78-0.02-1.57-0.01-2.35-0.01c-0.17,0-0.34,0-0.58,0
		c-0.04,0.58-0.02,1.13-0.02,1.69c0,0.56,0,1.13,0,1.69c0,0.55,0,1.09,0,1.64c0,0.56,0,1.12,0,1.71c-1.11,0-2.18,0-3.32,0
		C98.98,105.97,99,103.75,98.99,101.47z M108.78,124.93c-0.01,0.38-0.06,0.43-0.46,0.44c-0.51,0.01-1.02,0-1.53,0
		c-1.98,0-3.96,0-5.93,0c-0.14,0-0.27,0-0.41,0c-0.21,0-0.31-0.11-0.31-0.32c0-0.14,0-0.27,0-0.41c0-2.03,0-4.06,0-6.09
		c0-2.03,0-4.06,0-6.09c0-0.14,0-0.27,0-0.41c0-0.18,0.09-0.29,0.28-0.29c0.1,0,0.2,0,0.31,0c2.44,0,4.88,0,7.31,0
		c0.09,0,0.17,0,0.26,0c0.23-0.01,0.36,0.09,0.35,0.33c0,0.58,0,1.16,0,1.74c0,0.21-0.11,0.31-0.32,0.32
		c-0.14,0-0.27,0.01-0.41,0.01c-1.36,0-2.73,0-4.09,0c-0.12,0-0.24,0-0.36,0c-0.43,0.02-0.51,0.09-0.52,0.51
		c-0.01,0.66-0.01,1.33,0,1.99c0.01,0.46,0.08,0.52,0.56,0.52c1.31,0,2.63,0,3.94,0c0.12,0,0.24,0,0.36,0c0.2,0,0.32,0.09,0.32,0.3
		c0,0.58,0,1.16,0,1.74c0,0.25-0.14,0.32-0.36,0.32c-0.31,0-0.61,0-0.92,0c-1.11,0-2.22,0-3.32,0c-0.5,0-0.56,0.06-0.57,0.56
		c-0.01,0.77-0.01,1.53,0,2.3c0.01,0.47,0.07,0.54,0.53,0.56c0.49,0.02,0.99,0.01,1.48,0.01c1.07,0,2.15,0,3.22,0
		c0.54,0,0.59,0.05,0.6,0.58C108.78,124.01,108.79,124.47,108.78,124.93z M107.87,107.8c-0.65-0.38-1.01-0.94-1.02-1.71
		c0-1.21-0.01-2.42,0.01-3.63c0-0.19,0.06-0.41,0.16-0.57c0.56-0.83,1.15-1.65,1.71-2.48c0.15-0.23,0.33-0.3,0.59-0.3
		c2.39,0.01,4.77,0,7.16,0.01c0.5,0,0.98,0.12,1.42,0.36c0.61,0.33,0.99,0.83,1.04,1.54c0.03,0.47,0.01,0.95,0.01,1.45
		c-1.1,0-2.16,0-3.28,0c-0.01-0.32-0.03-0.63-0.04-0.94c-0.39-0.1-4.74-0.14-5.48-0.04c0,1.43,0,2.84,0,4.28c1.83,0,3.62,0,5.47,0
		c0-0.37,0-0.74,0-1.09c0.41-0.12,2.43-0.15,3.25-0.07c0.16,0.48,0.13,1.77-0.06,2.2c-0.19,0.44-0.51,0.76-0.92,0.99
		c-0.48,0.27-1.01,0.41-1.56,0.41c-2.3,0.01-4.6,0.01-6.9,0C108.88,108.21,108.35,108.08,107.87,107.8z M120.63,125.29
		c-0.75,0-1.5,0.01-2.25,0c-0.42,0-0.44-0.03-0.57-0.43c-0.43-1.4-0.85-2.8-1.28-4.2c-0.15-0.49-0.16-0.49-0.68-0.5
		c-0.36,0-0.72-0.01-1.07,0c-0.44,0.01-0.5,0.06-0.51,0.51c-0.01,0.75,0,1.5,0,2.25c0,0.66,0,1.33,0,1.99
		c0,0.41-0.04,0.45-0.43,0.46c-0.65,0.01-1.3,0.01-1.94,0c-0.37-0.01-0.41-0.05-0.43-0.41c-0.01-0.12,0-0.24,0-0.36
		c0-4.02,0-8.05,0-12.07c0-0.07,0-0.14,0-0.2c0.01-0.55,0.02-0.57,0.58-0.57c2.13,0,4.26-0.01,6.39,0.01
		c1.03,0.01,1.87,0.41,2.28,1.42c0.13,0.32,0.2,0.69,0.21,1.04c0.03,1.12,0.02,2.25,0.01,3.37c-0.01,1.04-0.44,1.84-1.4,2.31
		c-0.06,0.03-0.11,0.07-0.17,0.11c-0.01,0.01-0.02,0.03-0.08,0.12c0.55,1.67,1.11,3.36,1.69,5.09
		C120.82,125.25,120.72,125.29,120.63,125.29z M129.67,102.27c0-1.05,0-2.08,0-3.14c1.11,0,2.16,0,3.25,0c0,3.05,0,6.04,0,9.07
		c-1.07,0-2.12,0-3.23,0c0-1.13,0-2.27,0-3.38c-0.4-0.14-5.24-0.18-6.01-0.06c0,0.56-0.01,1.13-0.01,1.71c0,0.57,0,1.15,0,1.74
		c-1.13,0-2.18,0-3.23,0c-0.11-0.37-0.14-8.28-0.04-9.08c1.05-0.06,2.12-0.03,3.24-0.02c0,1.06,0,2.09,0,3.16
		C125.68,102.27,127.64,102.27,129.67,102.27z M132.99,122.94c-0.03,1.27-0.77,2.39-2.35,2.44c-1.41,0.05-2.83,0.07-4.24,0.08
		c-0.37,0-0.75-0.03-1.12-0.11c-0.88-0.2-1.49-0.72-1.75-1.6c-0.19-0.65-0.17-1.31-0.16-1.98c0-0.18,0.1-0.29,0.28-0.29
		c0.73,0,1.47,0,2.2,0c0.22,0,0.29,0.13,0.3,0.33c0,0.22-0.01,0.44,0.01,0.66c0.03,0.41,0.2,0.61,0.61,0.61
		c0.95,0.02,1.91,0.02,2.86,0c0.41-0.01,0.57-0.21,0.59-0.62c0.01-0.51,0.01-1.02,0-1.53c-0.01-0.5-0.12-0.66-0.62-0.79
		c-1.02-0.28-2.04-0.53-3.06-0.8c-0.41-0.11-0.83-0.21-1.24-0.31c-1.13-0.3-1.72-1.03-1.76-2.21c-0.03-0.85-0.09-1.7-0.06-2.55
		c0.03-1.13,0.54-2.38,2.23-2.51c0.8-0.06,1.6-0.01,2.4-0.01c0-0.01,0-0.02,0-0.03c0.66,0,1.33-0.01,1.99,0
		c0.31,0.01,0.62,0.02,0.91,0.09c1,0.24,1.67,1.02,1.76,2.07c0.04,0.49,0.03,0.99,0.02,1.48c-0.01,0.34-0.06,0.39-0.39,0.39
		c-0.66,0.01-1.33,0.01-1.99,0c-0.36-0.01-0.39-0.05-0.4-0.43c-0.01-0.24,0.01-0.48-0.01-0.72c-0.02-0.37-0.16-0.56-0.52-0.57
		c-0.9-0.02-1.81-0.02-2.71,0c-0.33,0.01-0.51,0.23-0.53,0.58c-0.02,0.48-0.01,0.95,0,1.43c0.01,0.42,0.29,0.59,0.65,0.68
		c0.84,0.22,1.68,0.43,2.52,0.65c0.56,0.14,1.12,0.28,1.68,0.44c0.28,0.08,0.55,0.18,0.8,0.32c0.69,0.39,1.08,0.99,1.09,1.79
		C133,120.93,133.01,121.93,132.99,122.94z M135.8,26.05c0,20.53,0,41.07,0,61.6c0,0.34,0.01,0.69-0.06,1.02
		c-0.3,1.51-1.58,2.55-3.15,2.56c-2.08,0.01-4.16,0-6.24,0c-2.78,0-5.56,0-8.34,0c-0.18,0-0.37,0-0.62,0
		c0.09-0.26,0.14-0.47,0.24-0.67c0.62-1.31,1.25-2.61,1.89-3.91c0.07-0.15,0.17-0.3,0.3-0.4c0.77-0.64,1.35-1.43,1.91-2.25
		c0.57-0.83,1.19-1.62,1.88-2.36c0.76-0.81,0.84-1.74,0.7-2.75c-0.04-0.31-0.23-0.53-0.48-0.7c-0.2-0.13-0.42-0.23-0.63-0.34
		c-0.23-0.11-0.39-0.25-0.37-0.54c0.03-0.54-0.24-0.92-0.64-1.26c-0.31-0.26-0.51-0.63-0.77-0.96c-0.06,0.04-0.11,0.08-0.17,0.11
		c0.06-0.21,0.1-0.43,0.17-0.63c0.59-1.56,1.03-3.17,1.38-4.81c0.08-0.38,0.2-0.76,0.29-1.14c0.1-0.44-0.03-0.7-0.41-0.88
		c-0.4-0.19-0.74-0.12-0.96,0.27c-0.26,0.46-0.48,0.94-0.67,1.43c-0.33,0.86-0.59,1.74-0.93,2.59c-0.23,0.58-0.54,1.13-0.96,1.6
		c0-0.38,0.07-0.74,0.25-1.07c0.06-0.11,0.13-0.21,0.16-0.32c0.32-1.05,0.8-2.02,1.23-3.02c0.09-0.2,0.14-0.42,0.19-0.64
		c0.07-0.37-0.01-0.54-0.28-0.69c-0.34-0.18-0.59-0.19-0.84,0.07c-0.24,0.24-0.46,0.51-0.63,0.8c-0.27,0.45-0.49,0.93-0.75,1.4
		c-0.64,1.16-1.3,2.31-1.93,3.48c-0.28,0.51-0.5,1.07-0.82,1.56c-0.25,0.39-0.42,0.85-0.84,1.13c-0.17,0.12-0.33,0.31-0.41,0.51
		c-0.11,0.26-0.28,0.37-0.53,0.41c-0.33,0.05-0.67,0.1-1.01,0.15c-0.02,0-0.04,0-0.05,0c-0.94,0.32-1.77,0.8-2.26,1.71
		c-0.17,0.31-0.14,0.65-0.06,1c0.09,0.34,0.16,0.7,0.17,1.05c0.01,0.3,0.13,0.46,0.39,0.51c0.3,0.05,0.42,0.23,0.49,0.5
		c0.19,0.69,0.54,1.29,1.07,1.76c-0.2,0.61-0.39,1.2-0.6,1.79c-0.04,0.11-0.11,0.21-0.18,0.3c-0.83,1.13-1.81,2.13-2.85,3.06
		c-0.05,0.04-0.11,0.07-0.22,0.15c-0.08-0.43-0.16-0.82-0.23-1.21c-0.61-3.48-1.38-6.92-2.23-10.34c-0.08-0.32-0.07-0.54,0.22-0.75
		c0.12-0.09,0.21-0.27,0.25-0.42c0.48-1.86,0.34-3.65-0.58-5.36c-0.18-0.33-0.37-0.65-0.57-0.97c-0.56-0.89-1.32-1.55-2.27-2
		c-0.23-0.11-0.46-0.22-0.67-0.32c0.18-0.31,0.35-0.58,0.53-0.89c0.09,0.04,0.22,0.08,0.33,0.15c1.27,0.77,2.53,1.54,3.8,2.32
		c0.47,0.28,0.93,0.57,1.4,0.85c0.13,0.08,0.27,0.15,0.41,0.2c0.45,0.18,0.59,0.11,0.68-0.35c0.06-0.32,0.1-0.64,0.12-0.96
		c0.01-0.28,0.12-0.47,0.34-0.64c0.92-0.71,1.81-1.45,2.75-2.13c0.52-0.38,0.88-0.84,1.11-1.43c0.08-0.2,0.17-0.4,0.29-0.69
		c0.2,0.26,0.37,0.46,0.53,0.67c0.46,0.61,0.54,0.62,1.06,0.03c1.39-1.59,2.41-3.39,3.08-5.38c0.84-2.53,1.13-5.12,0.84-7.77
		c-0.03-0.27-0.03-0.55-0.37-0.73c-0.77,0.35-1.58,0.7-2.38,1.06c-0.06-0.08-0.1-0.11-0.11-0.15c-1.13-2.8-3.22-4.68-5.86-6.02
		c-0.09-0.05-0.18-0.1-0.28-0.13c-0.42-0.13-0.72-0.36-0.73-0.85c0-0.06-0.03-0.13-0.07-0.19c-0.14-0.26-0.33-0.28-0.51-0.04
		c-0.1,0.13-0.18,0.28-0.29,0.45c-2.49-0.73-4.92-0.61-7.34,0.5c-0.24-0.46-0.46-0.92-0.7-1.36c-0.12-0.23-0.16-0.61-0.49-0.56
		c-0.15,0.02-0.26,0.35-0.38,0.55c-0.37,0.6-0.4,1.24-0.3,1.92c0.08,0.55,0.09,1.12,0.14,1.7c-0.75,0.44-1.25,1.09-1.53,1.84
		c-0.39,0-0.74,0-1.11,0c-0.73-0.52-1.54-1.04-2.27-1.64c-0.8-0.66-1.54-1.39-2.3-2.11c-0.1-0.1-0.16-0.26-0.22-0.4
		c-0.4-1.03-1.12-1.74-2.16-2.1c-0.98-0.34-1.97-0.66-2.95-0.99c-0.23-0.08-0.47-0.14-0.66-0.28c-0.45-0.32-0.95-0.39-1.48-0.42
		c-1.16-0.07-2.3-0.31-3.39-0.73c-2.31-0.88-4.64-0.86-6.98-0.27c-2.19,0.55-4.29,1.37-6.19,2.61c-1.54,1-3.17,1.79-4.89,2.41
		c-0.17,0.06-0.33,0.14-0.47,0.27c0.1-0.02,0.19-0.02,0.29-0.05c1.95-0.61,3.91-1.19,5.85-1.83c2.6-0.87,5.25-1.32,7.99-1.18
		c0.79,0.04,1.55,0.2,2.3,0.46c4.04,1.4,8.08,2.79,12.12,4.18c0.27,0.09,0.54,0.21,0.82,0.27c0.97,0.24,1.78,0.75,2.51,1.41
		c0.47,0.42,0.94,0.84,1.35,1.21c-0.08,0.53-0.19,0.97-0.2,1.42c-0.02,0.51,0.51,0.69,0.77,1.08c-0.3,0.17-0.57,0.25-0.9,0.08
		c-0.41-0.21-0.85-0.22-1.3-0.12c-0.15,0.04-0.33,0.02-0.49,0c-0.44-0.05-0.87-0.16-1.31-0.17c-0.33-0.01-0.63-0.06-0.94-0.19
		c-0.4-0.18-0.81-0.33-1.25-0.5c0.07-0.19,0.13-0.34,0.19-0.5c0.11-0.29,0.06-0.55-0.19-0.74c-0.21-0.16-0.44-0.34-0.69-0.41
		c-1.01-0.29-2.04-0.54-3.06-0.81c-0.63-0.16-1.14,0.05-1.53,0.56c-0.18,0.23-0.33,0.47-0.48,0.72c-0.26,0.43-0.41,0.47-0.79,0.14
		c-1.01-0.89-2.14-1.58-3.4-2.04c-1.9-0.7-3.86-0.94-5.88-0.79c-1.94,0.14-3.81,0.55-5.58,1.37c-0.68,0.32-1.3,0.75-1.95,1.11
		c-0.17,0.1-0.36,0.2-0.55,0.22c-1.66,0.21-3.33,0.26-5,0.14c-1.79-0.13-3.54,0.13-5.29,0.42c-0.03,0.01-0.07,0.01-0.1,0.02
		c-0.64,0.16-1.22,0.15-1.86-0.16c-1.02-0.49-2.16-0.61-3.28-0.73c-1.75-0.18-3.51-0.2-5.26-0.11c-1.43,0.07-2.82-0.07-4.16-0.63
		c-0.19-0.08-0.42-0.03-0.66-0.04c0.14-0.07,0.27-0.14,0.41-0.2c13.78-5.81,27.67-11.34,41.76-16.35
		c7.22-2.57,14.49-4.98,21.87-7.05c5.3-1.48,10.66-2.71,16.08-3.67c0.61-0.11,1.21-0.16,1.83-0.16c2.86,0.01,5.73,0,8.59,0.01
		c0.42,0,0.86,0.05,1.26,0.17c1.23,0.38,2.05,1.51,2.09,2.8C135.8,25.74,135.8,25.9,135.8,26.05z M106.73,57.31
		c0.39,0.18,0.72,0.33,1.04,0.48c0.8,0.38,1.6,0.76,2.4,1.13c0.26,0.12,0.44,0.29,0.6,0.53c0.88,1.42,1.82,2.8,2.95,4.03
		c0.22,0.24,0.3,0.47,0.17,0.78c-0.1,0.23-0.16,0.48-0.26,0.8c-0.18-0.16-0.32-0.27-0.44-0.39c-1.23-1.2-2.18-2.61-2.94-4.14
		c-0.22-0.43-0.5-0.72-0.93-0.95c-0.7-0.37-1.36-0.84-2.04-1.26C106.92,58.1,106.78,57.78,106.73,57.31z"/>
</g>
</svg>
