<?xml version="1.0" encoding="utf-8"?>
<!-- Generator: Adobe Illustrator 25.0.0, SVG Export Plug-In . SVG Version: 6.00 Build 0)  -->
<svg version="1.1" id="Layer_1" xmlns="http://www.w3.org/2000/svg" xmlns:xlink="http://www.w3.org/1999/xlink" x="0px" y="0px"
	 viewBox="0 0 70.9 9.9" enable-background="new 0 0 70.9 9.9" xml:space="preserve">
<g>
	<path fill="#FFFFFF" d="M57.6,0.7c0,0.4-0.3,0.8-0.8,0.8c-0.4,0-0.8-0.3-0.8-0.8c0-0.4,0.3-0.8,0.8-0.8C57.3,0,57.6,0.3,57.6,0.7"
		/>
	<path fill="#FFFFFF" d="M21.9,2.5v1.2h-1.3V7c0,0.3,0.1,0.5,0.2,0.6c0.1,0.1,0.3,0.2,0.6,0.2c0.1,0,0.2,0,0.3,0c0.1,0,0.2,0,0.3,0
		v1.4c-0.2,0-0.3,0-0.5,0.1c-0.2,0-0.4,0-0.6,0c-0.3,0-0.6,0-0.8-0.1c-0.3,0-0.5-0.1-0.7-0.2c-0.2-0.1-0.3-0.3-0.5-0.5
		c-0.1-0.2-0.2-0.5-0.2-0.8V3.7h-1.1V2.5h1.1v-2h1.8v2H21.9z"/>
	<path fill="#FFFFFF" d="M24.2,7.6C24.4,7.8,24.8,8,25.4,8c0.4,0,0.7-0.1,1-0.3c0.3-0.2,0.4-0.4,0.5-0.6h1.6
		c-0.3,0.8-0.7,1.4-1.2,1.7c-0.5,0.3-1.2,0.5-1.9,0.5c-0.5,0-1-0.1-1.4-0.3c-0.4-0.2-0.8-0.4-1.1-0.7c-0.3-0.3-0.5-0.7-0.7-1.1
		c-0.2-0.4-0.2-0.9-0.2-1.4c0-0.5,0.1-1,0.2-1.4c0.2-0.4,0.4-0.8,0.7-1.1c0.3-0.3,0.7-0.6,1.1-0.7c0.4-0.2,0.9-0.3,1.4-0.3
		c0.6,0,1.1,0.1,1.5,0.3c0.4,0.2,0.8,0.5,1,0.9c0.3,0.4,0.5,0.8,0.6,1.3c0.1,0.5,0.2,1,0.1,1.5h-4.8C23.7,6.9,23.9,7.3,24.2,7.6z
		 M26.2,4.1c-0.2-0.2-0.6-0.4-1-0.4c-0.3,0-0.5,0-0.7,0.1c-0.2,0.1-0.3,0.2-0.5,0.4c-0.1,0.1-0.2,0.3-0.2,0.5c0,0.2-0.1,0.3-0.1,0.4
		h3C26.6,4.7,26.5,4.3,26.2,4.1z"/>
	<path fill="#FFFFFF" d="M31.3,7.6C31.6,7.8,32,8,32.5,8c0.4,0,0.7-0.1,1-0.3c0.3-0.2,0.4-0.4,0.5-0.6h1.6c-0.3,0.8-0.7,1.4-1.2,1.7
		c-0.5,0.3-1.2,0.5-1.9,0.5c-0.5,0-1-0.1-1.4-0.3c-0.4-0.2-0.8-0.4-1.1-0.7c-0.3-0.3-0.5-0.7-0.7-1.1C29.1,6.8,29,6.4,29,5.8
		c0-0.5,0.1-1,0.2-1.4c0.2-0.4,0.4-0.8,0.7-1.1C30.2,3,30.6,2.8,31,2.6c0.4-0.2,0.9-0.3,1.4-0.3c0.6,0,1.1,0.1,1.5,0.3
		c0.4,0.2,0.8,0.5,1,0.9c0.3,0.4,0.5,0.8,0.6,1.3c0.1,0.5,0.2,1,0.1,1.5h-4.8C30.9,6.9,31,7.3,31.3,7.6z M33.4,4.1
		c-0.2-0.2-0.6-0.4-1-0.4c-0.3,0-0.5,0-0.7,0.1c-0.2,0.1-0.3,0.2-0.5,0.4C31,4.4,31,4.5,30.9,4.7c0,0.2-0.1,0.3-0.1,0.4h3
		C33.7,4.7,33.6,4.3,33.4,4.1z"/>
	<path fill="#FFFFFF" d="M38,0.4v8.7h-1.8V0.4H38z"/>
	<g>
		<path fill="#FFFFFF" d="M49,7.9c-0.3,0.2-0.6,0.3-1,0.3c-0.3,0-0.6-0.1-0.8-0.2c-0.2-0.1-0.4-0.3-0.6-0.4
			c-0.1-0.2-0.3-0.4-0.3-0.6c-0.1-0.2-0.1-0.5-0.1-0.8H51c0.1-0.5,0-1-0.1-1.5c-0.1-0.5-0.3-0.9-0.6-1.2c-0.3-0.4-0.6-0.7-1-0.9
			c-0.4-0.2-0.9-0.3-1.4-0.3c-0.5,0-0.9,0.1-1.3,0.3c-0.4,0.2-0.7,0.4-1,0.8c-0.3,0.3-0.5,0.7-0.6,1.1c-0.2,0.4-0.2,0.9-0.2,1.4
			c0,0.5,0.1,1,0.2,1.4c0.1,0.4,0.4,0.8,0.6,1.1c0.3,0.3,0.6,0.6,1,0.7c0.4,0.2,0.9,0.3,1.4,0.3c0.4,0,0.7,0,1-0.1
			c0.3-0.1,0.6-0.2,0.9-0.4c0.3-0.2,0.5-0.4,0.7-0.7c0.2-0.3,0.3-0.6,0.4-1h-1.4C49.4,7.5,49.2,7.7,49,7.9z M46.3,4.5
			c0.1-0.2,0.2-0.4,0.4-0.6c0.2-0.2,0.3-0.3,0.5-0.4c0.2-0.1,0.4-0.1,0.7-0.1c0.3,0,0.5,0,0.7,0.1c0.2,0.1,0.4,0.2,0.5,0.4
			c0.1,0.2,0.3,0.3,0.3,0.6c0.1,0.2,0.1,0.4,0.1,0.7h-3.4C46.1,5,46.2,4.8,46.3,4.5z"/>
	</g>
	<path fill="#FFFFFF" d="M56.1,2.5h1.5v6.7h-1.5V2.5z"/>
	<g>
		<path fill="#FFFFFF" d="M44.2,6.4c-0.1-0.2-0.3-0.4-0.5-0.6c-0.2-0.1-0.4-0.3-0.7-0.3c-0.3-0.1-0.5-0.2-0.8-0.2
			c-0.3-0.1-0.5-0.1-0.8-0.2C41.1,5,40.9,5,40.7,4.9c-0.2-0.1-0.4-0.2-0.5-0.3C40.1,4.5,40,4.3,40,4.2c0-0.1,0-0.3,0.1-0.4
			c0.1-0.1,0.2-0.2,0.3-0.2c0.1,0,0.3-0.1,0.4-0.1c0.1,0,0.3,0,0.4,0c0.3,0,0.6,0.1,0.9,0.2c0.3,0.1,0.4,0.4,0.5,0.7h1.5
			c0-0.4-0.1-0.7-0.3-1c-0.2-0.3-0.4-0.5-0.6-0.6c-0.3-0.2-0.5-0.3-0.9-0.4c-0.3-0.1-0.6-0.1-1-0.1c-0.3,0-0.6,0-1,0.1
			c-0.3,0.1-0.6,0.2-0.9,0.3c-0.3,0.2-0.5,0.3-0.7,0.6c-0.2,0.2-0.3,0.5-0.3,0.9c0,0.3,0.1,0.6,0.2,0.8c0.1,0.2,0.3,0.4,0.5,0.6
			c0.2,0.1,0.4,0.3,0.7,0.3c0.3,0.1,0.5,0.2,0.8,0.2c0.3,0.1,0.5,0.1,0.8,0.2c0.3,0.1,0.5,0.1,0.7,0.2c0.2,0.1,0.4,0.2,0.5,0.3
			c0.1,0.1,0.2,0.3,0.2,0.5c0,0.2,0,0.3-0.1,0.5C42.6,7.9,42.5,8,42.4,8c-0.2,0.1-0.3,0.1-0.5,0.1c-0.2,0-0.3,0-0.5,0
			c-0.4,0-0.7-0.1-1-0.3c-0.3-0.2-0.4-0.4-0.5-0.8h-1.5c0,0.4,0.1,0.7,0.2,1c0.2,0.3,0.4,0.5,0.6,0.7c0.3,0.2,0.6,0.3,0.9,0.4
			c0.4,0.1,0.7,0.1,1.2,0.1c0.3,0,0.7,0,1-0.1c0.4-0.1,0.7-0.2,1-0.4c0.3-0.2,0.5-0.4,0.7-0.7c0.2-0.3,0.3-0.6,0.3-1
			C44.4,6.9,44.3,6.6,44.2,6.4z"/>
	</g>
	<g>
		<path fill="#FFFFFF" d="M64.5,4.8c-0.1-0.5-0.3-0.9-0.6-1.2c-0.3-0.4-0.6-0.7-1-0.9c-0.4-0.2-0.9-0.3-1.4-0.3
			c-0.5,0-0.9,0.1-1.3,0.3c-0.4,0.2-0.7,0.4-1,0.8c-0.3,0.3-0.5,0.7-0.6,1.1c-0.2,0.4-0.2,0.9-0.2,1.4c0,0.5,0.1,1,0.2,1.4
			c0.1,0.4,0.4,0.8,0.6,1.1c0.3,0.3,0.6,0.6,1,0.7c0.4,0.2,0.9,0.3,1.4,0.3c0.4,0,0.7,0,1-0.1c0.3-0.1,0.6-0.2,0.9-0.4
			c0.3-0.2,0.5-0.4,0.7-0.7c0.2-0.3,0.3-0.6,0.4-1h-1.4c-0.1,0.4-0.3,0.6-0.6,0.8c-0.3,0.2-0.6,0.3-1,0.3c-0.3,0-0.6-0.1-0.8-0.2
			c-0.2-0.1-0.4-0.3-0.6-0.4C60,7.4,59.8,7.2,59.8,7c-0.1-0.2-0.1-0.5-0.1-0.8h4.9C64.6,5.7,64.6,5.2,64.5,4.8z M59.7,5.2
			c0-0.3,0.1-0.5,0.1-0.7C59.9,4.3,60,4.1,60.2,4c0.2-0.2,0.3-0.3,0.5-0.4c0.2-0.1,0.4-0.1,0.7-0.1c0.3,0,0.5,0,0.7,0.1
			c0.2,0.1,0.4,0.2,0.5,0.4c0.1,0.2,0.3,0.3,0.3,0.6C63,4.8,63.1,5,63.1,5.2H59.7z"/>
	</g>
	<g>
		<path fill="#FFFFFF" d="M70.7,6.4c-0.1-0.2-0.3-0.4-0.5-0.6c-0.2-0.1-0.4-0.3-0.7-0.3c-0.3-0.1-0.5-0.2-0.8-0.2
			c-0.3-0.1-0.5-0.1-0.8-0.2C67.6,5,67.4,5,67.2,4.9c-0.2-0.1-0.4-0.2-0.5-0.3c-0.1-0.1-0.2-0.3-0.2-0.4c0-0.1,0-0.3,0.1-0.4
			c0.1-0.1,0.2-0.2,0.3-0.2c0.1,0,0.3-0.1,0.4-0.1c0.1,0,0.3,0,0.4,0c0.3,0,0.6,0.1,0.9,0.2C68.9,3.8,69,4,69.1,4.4h1.5
			c0-0.4-0.1-0.7-0.3-1c-0.2-0.3-0.4-0.5-0.6-0.6c-0.3-0.2-0.5-0.3-0.9-0.4c-0.3-0.1-0.6-0.1-1-0.1c-0.3,0-0.6,0-1,0.1
			c-0.3,0.1-0.6,0.2-0.9,0.3c-0.3,0.2-0.5,0.3-0.7,0.6c-0.2,0.2-0.3,0.5-0.3,0.9c0,0.3,0.1,0.6,0.2,0.8c0.1,0.2,0.3,0.4,0.5,0.6
			c0.2,0.1,0.4,0.3,0.7,0.3c0.3,0.1,0.5,0.2,0.8,0.2c0.3,0.1,0.5,0.1,0.8,0.2c0.3,0.1,0.5,0.1,0.7,0.2c0.2,0.1,0.4,0.2,0.5,0.3
			c0.1,0.1,0.2,0.3,0.2,0.5c0,0.2,0,0.3-0.1,0.5C69.2,7.9,69,8,68.9,8c-0.2,0.1-0.3,0.1-0.5,0.1c-0.2,0-0.3,0-0.5,0
			c-0.4,0-0.7-0.1-1-0.3c-0.3-0.2-0.4-0.4-0.5-0.8h-1.5c0,0.4,0.1,0.7,0.2,1c0.2,0.3,0.4,0.5,0.6,0.7C66,9,66.3,9.1,66.7,9.2
			c0.4,0.1,0.7,0.1,1.2,0.1c0.3,0,0.7,0,1-0.1c0.4-0.1,0.7-0.2,1-0.4c0.3-0.2,0.5-0.4,0.7-0.7c0.2-0.3,0.3-0.6,0.3-1
			C70.9,6.9,70.8,6.6,70.7,6.4z"/>
	</g>
	<g>
		<path fill="#FFFFFF" d="M17.1,3.4c-0.2-0.3-0.4-0.5-0.7-0.7c-0.3-0.2-0.6-0.3-0.9-0.3c-0.3-0.1-0.7-0.1-1.1-0.1
			c-0.4,0-0.7,0-1.1,0.1c-0.3,0.1-0.7,0.2-0.9,0.3c-0.3,0.2-0.5,0.4-0.7,0.7c-0.2,0.3-0.3,0.6-0.3,1.1c0,0.3,0.1,0.5,0.2,0.7
			c0.1,0.2,0.3,0.4,0.5,0.5c0.2,0.1,0.4,0.2,0.7,0.3c0.3,0.1,0.5,0.2,0.8,0.2c0.7,0.1,1.2,0.3,1.5,0.4c0.4,0.1,0.5,0.3,0.5,0.6
			c0,0.2,0,0.3-0.1,0.4c-0.1,0.1-0.2,0.2-0.3,0.3c-0.1,0.1-0.2,0.1-0.4,0.1c-0.1,0-0.3,0-0.4,0c-0.2,0-0.4,0-0.5-0.1
			c-0.2,0-0.3-0.1-0.4-0.2c-0.1-0.1-0.2-0.2-0.3-0.3c-0.1-0.1-0.1-0.3-0.1-0.4h-1.7c0,0.4,0.1,0.7,0.3,1c0.2,0.3,0.4,0.5,0.7,0.7
			c0.3,0.2,0.6,0.3,1,0.4c0.4,0.1,0.8,0.1,1.1,0.1c0.4,0,0.8,0,1.1-0.1c0.4-0.1,0.7-0.2,1-0.4c0.3-0.2,0.5-0.4,0.7-0.7
			c0.2-0.3,0.3-0.7,0.3-1.1c0-0.3-0.1-0.6-0.2-0.8c-0.1-0.2-0.3-0.4-0.5-0.5c-0.2-0.1-0.4-0.3-0.7-0.3c-0.3-0.1-0.5-0.2-0.8-0.2
			C15.2,5.1,14.9,5,14.7,5c-0.3-0.1-0.5-0.1-0.7-0.2c-0.2-0.1-0.4-0.1-0.5-0.3c-0.1-0.1-0.2-0.2-0.2-0.4c0-0.1,0-0.2,0.1-0.3
			c0.1-0.1,0.2-0.1,0.3-0.2c0.1,0,0.2-0.1,0.3-0.1c0.1,0,0.2,0,0.3,0c0.3,0,0.6,0.1,0.9,0.2c0.2,0.1,0.4,0.3,0.4,0.7h1.7
			C17.4,4,17.2,3.7,17.1,3.4z"/>
	</g>
	<path fill="#FFFFFF" d="M55.4,2.5c-0.7,0-1.6,0-2.5,0.8l0,0V2.5h-1.4v4l0,2.7h0v0h0.7l0.8,0l0-3.8c0-1.2,1.1-1.5,2.4-1.5L55.4,2.5z
		"/>
	<g>
		<path fill="#FFFFFF" d="M6.6,1.8V0.7C6.6,0.3,6.2,0,5.8,0C5.4,0,5.1,0.3,5.1,0.7v1.1c-1.7,0.3-3,1.6-3.3,3.3h-1
			C0.3,5.1,0,5.4,0,5.8c0,0.4,0.3,0.7,0.7,0.7h1c0.4,1.9,2,3.3,4,3.3c2.3,0,4.1-1.8,4.1-4.1C9.9,3.8,8.5,2.2,6.6,1.8 M5.8,8.4
			c-1.4,0-2.6-1.2-2.6-2.6c0-1.4,1.2-2.6,2.6-2.6c1.4,0,2.6,1.2,2.6,2.6C8.4,7.3,7.3,8.4,5.8,8.4"/>
		<path fill="#FFFFFF" d="M4.2,5.8c0,0.9,0.7,1.6,1.6,1.6c0.9,0,1.6-0.7,1.6-1.6c0-0.9-0.7-1.6-1.6-1.6C4.9,4.2,4.2,5,4.2,5.8
			 M5.3,5.8c0-0.3,0.2-0.5,0.5-0.5c0.3,0,0.5,0.2,0.5,0.5c0,0.3-0.2,0.5-0.5,0.5C5.5,6.3,5.3,6.1,5.3,5.8"/>
		<path fill="#FFFFFF" d="M2.7,2.1c0,0.4-0.3,0.8-0.8,0.8c-0.4,0-0.8-0.3-0.8-0.8c0-0.4,0.3-0.8,0.8-0.8C2.4,1.3,2.7,1.7,2.7,2.1"/>
	</g>
</g>
</svg>
