<svg id="Layer_1" data-name="Layer 1" xmlns="http://www.w3.org/2000/svg" viewBox="0 0 125.15 48.19"><defs><style>.cls-1{fill:#fff;}</style></defs><path class="cls-1" d="M124.83,39a5,5,0,0,0-3.9,1.86A3.5,3.5,0,0,0,117.68,39a5,5,0,0,0-3.58,1.46,1.82,1.82,0,0,0-1.92-1.25,5.78,5.78,0,0,0-1,.14,16.6,16.6,0,0,1,.32,3.29v7.75h2.83v-7.9a3.89,3.89,0,0,1,2.39-1.12c1.31,0,1.91,1,1.91,2.25v6.77h2.85v-7.9a3.83,3.83,0,0,1,2.39-1.12c1.3,0,1.89,1,1.89,2.25v6.77h2.86V43.2C128.58,40.67,127.14,39,124.83,39Z" transform="translate(-3.43 -2.64)"/><path class="cls-1" d="M93.74,48.36a3.53,3.53,0,0,1,0-7c.93,0,1.33.28,2,.28a1.39,1.39,0,0,0,1.34-1l.29-.56a7.46,7.46,0,0,0-4-1.06,5.5,5.5,0,0,0-5.72,5.83,5.49,5.49,0,0,0,5.72,5.81,7,7,0,0,0,4-1.15l-1-1.94A5,5,0,0,1,93.74,48.36Z" transform="translate(-3.43 -2.64)"/><path class="cls-1" d="M62.64,39c-2.72,0-5,2.21-5,5.83s2.22,5.81,5.54,5.81a6.73,6.73,0,0,0,4.18-1.26L67,48.86a1.43,1.43,0,0,0-1.26-.8c-.94,0-1.06.39-2.33.39a2.85,2.85,0,0,1-3-2.83h7.27v-.84C67.73,41.31,65.73,39,62.64,39Zm-2.19,4.59a2.19,2.19,0,1,1,4.34,0Z" transform="translate(-3.43 -2.64)"/><path class="cls-1" d="M72.59,47.28V35.67a2.19,2.19,0,0,0-2.23-2.32h-.61V48.41a2.11,2.11,0,0,0,2.35,2.25,2.26,2.26,0,0,0,2.39-2.54,2.15,2.15,0,0,1-.86.2A1,1,0,0,1,72.59,47.28Z" transform="translate(-3.43 -2.64)"/><path class="cls-1" d="M53.62,46.88V41.37H56l.83-2.14h-3.2V35.9h-.27c-1.26,0-2.57.53-2.57,3.31v0h-2.1v2.14h2.1v6.49a2.75,2.75,0,1,0,5.49,0,2.78,2.78,0,0,1-1.36.45C54,48.26,53.62,47.7,53.62,46.88Z" transform="translate(-3.43 -2.64)"/><path class="cls-1" d="M80.44,39c-2.72,0-5,2.21-5,5.83s2.22,5.81,5.54,5.81a6.73,6.73,0,0,0,4.18-1.26l-.33-.54a1.43,1.43,0,0,0-1.26-.8c-.94,0-1.06.39-2.33.39a2.85,2.85,0,0,1-3-2.83h7.27v-.84C85.53,41.31,83.53,39,80.44,39Zm-2.19,4.59a2.19,2.19,0,1,1,4.34,0Z" transform="translate(-3.43 -2.64)"/><path class="cls-1" d="M103.86,50.66c-3.47,0-5.56-2.29-5.56-5.81S100.37,39,103.86,39s5.57,2.32,5.57,5.83C109.43,48.16,107.53,50.66,103.86,50.66Zm0-2.18c1.74,0,2.75-1.5,2.75-3.63s-1-3.65-2.75-3.65-2.73,1.49-2.73,3.65S102.1,48.48,103.86,48.48Z" transform="translate(-3.43 -2.64)"/><path class="cls-1" d="M12.49,38c-1.71-.8-3.12-1.45-3.12-2.76,0-1,.8-1.73,2.38-1.73a8.11,8.11,0,0,1,1.55.16,4.18,4.18,0,0,0,.76.08c1.38,0,2.16-.82,2.68-2.38l.21-.64a14.39,14.39,0,0,0-5.42-1.08c-4.68,0-7.15,3-7.15,6.12a5.2,5.2,0,0,0,1.27,3.6,11.25,11.25,0,0,0,3.73,2.56c1.92.94,3.66,1.64,3.66,3s-1.28,2-3,2a9.44,9.44,0,0,1-4.68-1.51L3.43,49.05a13.25,13.25,0,0,0,6.93,1.78c4.37,0,7.68-2.51,7.68-6.36S15,39.21,12.49,38Z" transform="translate(-3.43 -2.64)"/><path class="cls-1" d="M29.58,39.8l7.92-9.72H31.86l-6.32,8.39h-.1V30.08H20.79V50.67h.28c2,0,4.4-.93,4.4-4.3V41.65h.1L32,50.41h5.92Z" transform="translate(-3.43 -2.64)"/><path class="cls-1" d="M37.77,8c-1.64.31-4.07,1.8-4.06,4.43,0,2.39,2,3.84,2,7A5.55,5.55,0,0,1,33,24.25a17.89,17.89,0,0,1,1.87-.09,16.07,16.07,0,0,1,2.35.14l7.36-9A30.94,30.94,0,0,0,37.77,8Z" transform="translate(-3.43 -2.64)"/><path class="cls-1" d="M43.94,32.39c.93-1.44,1.05-3.73,1.12-6.07.09-2.18.55-3.82,3.46-3.83.65,0,1.27.08,2.38.08a17.13,17.13,0,0,0,8.8-2.46,30.5,30.5,0,0,0-15.14-4.83c-.42,1.18-3.68,10.23-3.92,11A14.4,14.4,0,0,1,42,28.17,21.49,21.49,0,0,1,43.94,32.39Z" transform="translate(-3.43 -2.64)"/><path class="cls-1" d="M28.42,25c-.38,0-.56-.24-.61-.67S25.92,7.08,25.65,4.54c0-.38-.13-1.06-.13-1.3a.54.54,0,0,1,.55-.6c.87,0,5.62,1.11,10.66,4.64a5.39,5.39,0,0,0-4.07,5.05c0,2.76,2,4.29,2,7.06C34.68,23.91,29.49,25,28.42,25Z" transform="translate(-3.43 -2.64)"/><path class="cls-1" d="M44.37,33.59a2.86,2.86,0,0,0,.22.51.51.51,0,0,0,.46.29,1.14,1.14,0,0,0,.42-.11l18.05-8.4c.34-.16,1-.44,1.18-.57a.55.55,0,0,0,.32-.48.53.53,0,0,0-.09-.3,18.84,18.84,0,0,0-4.26-3.77A19,19,0,0,1,51,23.54c-1.12,0-1.37-.07-2.14-.07-2.24,0-2.79,1-2.88,2.92,0,.37,0,.87,0,1.42C45.91,29.56,45.7,32,44.37,33.59Z" transform="translate(-3.43 -2.64)"/></svg>