<?xml version="1.0" encoding="utf-8"?>
<!-- Generator: Adobe Illustrator 23.0.6, SVG Export Plug-In . SVG Version: 6.00 Build 0)  -->
<svg version="1.1" id="Layer_1" xmlns="http://www.w3.org/2000/svg" xmlns:xlink="http://www.w3.org/1999/xlink" x="0px" y="0px"
	 viewBox="0 0 150 150" style="enable-background:new 0 0 150 150;" xml:space="preserve">
<style type="text/css">
	.st0{fill:#FFFFFF;}
</style>
<path class="st0" d="M113.7,114.9l-5-15.2c1.9-2.7,3.4-5.5,4.7-8.5l26.3-15.7L113,59.7c-1.1-2.6-2.5-5-4.1-7.4l4.4-17.3l-16.7,5.5
	c-2-1.3-4.1-2.3-6.3-3.2l-15.6-26L59.5,37.2c-2.5,0.9-4.8,2.2-7,3.6l-19-5.5l5.6,19.3c-1.1,1.9-2,3.7-2.8,5.7l-25.6,15l25.2,15.1
	c0.8,2.2,1.9,4.4,3.2,6.6l-5.3,18.3l17.6-5.2c2.6,1.8,5.3,3.2,8.1,4.3l15.2,25.9l15.6-26c2.5-0.9,4.7-2.2,6.9-3.6
	C97.2,110.7,113.7,114.9,113.7,114.9z M56.1,97.2c-0.4-0.5-0.8-2.2-0.8-2.2l-0.9-2c0,0-0.8-1.4,0.9-1.2s8.3,2.8,11.9,2.9
	c3.6,0.1,5.5-1.8,6.2-2c0.7-0.2,4.6-1.8,5.7-1.9c1.2-0.1,8.2-4.4,9.2-14.9c1.1-10.3-8.3-16.4-13.6-16.5c0,0-3.3-0.1-4.1,0.4
	c-0.8,0.5-5.7,2.8-7.8,3c0,0-1.8,1.8-1.5,3.7c0.2,2.1,0.2,9.2,7.8,9.2c0,0,1.8-0.9,1.6-8.1c0,0,9.5-0.8,9.7,8.1
	c0.2,8.9-8.4,10.1-13.9,9.8s-16.9-7.6-16-19.4l0.7-4.2l1.9-2.2c0,0,4.3-8.8,14.4-11.5c0,0,0.8-1.4,1.9-1.4s1.9,1.2,3.4,1.3
	c1.5,0.1,2.1-1.4,3.5-1.3c1.4,0.1,1.5,1.2,3,1.4c1.5,0.2,8.9,1.2,14.9,9.4c0,0,0.2,2.1,1.2,2.5c0.8,0.4,2.8,1.3,3.2,1.9
	c0.2,0.7,2.2,7.8,2.1,10.9c-0.1,3-1.1,17.2-10.4,21.5L90,97.1c0,0-7,6.3-17.8,5.5C61.6,101.8,58.6,100.6,56.1,97.2z"/>
</svg>
