<?xml version="1.0" encoding="utf-8"?>
<!-- Generator: Adobe Illustrator 23.0.6, SVG Export Plug-In . SVG Version: 6.00 Build 0)  -->
<svg version="1.1" id="Layer_1" xmlns="http://www.w3.org/2000/svg" xmlns:xlink="http://www.w3.org/1999/xlink" x="0px" y="0px"
	 viewBox="0 0 150 150" style="enable-background:new 0 0 150 150;" xml:space="preserve">
<style type="text/css">
	.st0{fill:#FFFFFF;}
</style>
<g>
	<path class="st0" d="M59.4,86.6h80.7c0.6-3.5,0.9-7.1,0.9-10.8c0-36-29.2-65.2-65.2-65.2c-5.7,0-11.2,0.7-16.4,2.1V86.6z"/>
	<path class="st0" d="M40,86.6V21.3C22.3,33,10.6,53,10.6,75.8c0,3.7,0.3,7.3,0.9,10.8H40z"/>
	<path class="st0" d="M59.4,99.3v39.6c5.3,1.4,10.8,2.1,16.4,2.1c27.7,0,51.4-17.3,60.8-41.7H59.4z"/>
	<path class="st0" d="M40,99.3H15c4.9,12.8,13.8,23.6,25,31V99.3z"/>
</g>
</svg>
