<?xml version="1.0" encoding="utf-8"?>
<!-- Generator: Adobe Illustrator 23.1.1, SVG Export Plug-In . SVG Version: 6.00 Build 0)  -->
<svg version="1.1" xmlns="http://www.w3.org/2000/svg" xmlns:xlink="http://www.w3.org/1999/xlink" x="0px" y="0px"
	 viewBox="0 0 3971.45 1255" style="enable-background:new 0 0 3971.45 1255;" xml:space="preserve">
<style type="text/css">
	.st0{display:none;}
	.st1{fill:#FFFFFF;}
</style>
<g id="Layer_2" class="st0">
</g>
<g id="Layer_1">
	<g>
		<g>
			<polygon class="st1" points="56,0 639.5,322 1223,0 			"/>
			<polygon class="st1" points="604,1255 604,392 0,59 			"/>
			<polygon class="st1" points="675,1255 675,392 1279,59 			"/>
			<g>
				<path class="st1" d="M1508.79,365.03c-19.53,0-29.3,4.98-29.3,14.94c0,9.57,9.76,14.36,29.3,14.36h146.48
					c78.12,0,117.19,39.07,117.19,117.19c0,97.66-48.83,146.48-146.48,146.48h-263.67V540.81h263.67c19.53,0,29.3-4.49,29.3-13.48
					c0-10.55-9.77-15.82-29.3-15.82h-117.19c-97.66,0-146.48-39.06-146.48-117.19c0-97.65,48.83-146.48,146.48-146.48h263.67v117.19
					H1508.79z"/>
				<path class="st1" d="M1801.76,247.84h410.16v117.19h-410.16V247.84z M1801.76,394.33h410.16v117.19h-410.16V394.33z
					 M1801.76,658V540.81h410.16V658H1801.76z"/>
				<path class="st1" d="M2241.21,452.92c0-136.72,68.36-205.08,205.08-205.08c136.72,0,205.08,62.89,205.08,188.67h-117.19
					c0-47.65-29.3-71.48-87.89-71.48s-87.89,29.3-87.89,87.89s29.3,87.89,87.89,87.89s87.89-24.22,87.89-72.66h117.19
					c0,126.56-68.36,189.84-205.08,189.84C2309.57,658,2241.21,589.64,2241.21,452.92z"/>
				<path class="st1" d="M2856.45,511.52h-58.59V658h-117.19V247.84h263.67c97.66,0,146.48,48.83,146.48,146.48
					c0,53.91-23.25,89.26-69.73,106.05l245.51,245.51h-175.78L2856.45,511.52z M2797.85,365.03v29.3h146.48
					c19.53,0,29.3-4.78,29.3-14.36c0-9.96-9.77-14.94-29.3-14.94H2797.85z"/>
				<path class="st1" d="M3120.12,247.84h410.16v117.19h-410.16V247.84z M3120.12,394.33h410.16v117.19h-410.16V394.33z
					 M3120.12,658V540.81h410.16V658H3120.12z"/>
				<path class="st1" d="M3559.57,247.84h410.16v117.19h-146.48V658h-117.19V365.03h-146.48V247.84z"/>
				<path class="st1" d="M2680.67,780.84h117.19v292.97h292.97V1191h-410.16V780.84z"/>
				<path class="st1" d="M3120.12,1191V985.92c0-136.72,68.36-205.08,205.08-205.08c136.72,0,205.08,68.36,205.08,205.08V1191
					h-117.19v-87.89h-175.78V1191H3120.12z M3413.09,985.92c0-58.59-29.3-87.89-87.89-87.89s-87.89,29.3-87.89,87.89H3413.09z"/>
				<path class="st1" d="M3559.57,1191V780.84h263.67c97.66,0,146.48,48.83,146.48,146.48c0,39.07-19.53,58.59-58.59,58.59
					c39.06,0,58.59,19.53,58.59,58.59c0,97.66-48.83,146.48-146.48,146.48H3559.57z M3823.25,927.33c19.53,0,29.3-4.88,29.3-14.65
					c0-9.76-9.77-14.65-29.3-14.65h-146.48v29.3H3823.25z M3823.25,1073.81c19.53,0,29.3-4.88,29.3-14.65
					c0-9.76-9.77-14.65-29.3-14.65h-146.48v29.3H3823.25z"/>
			</g>
		</g>
	</g>
</g>
</svg>
