<?xml version="1.0" encoding="utf-8"?>
<!-- Generator: Adobe Illustrator 23.0.6, SVG Export Plug-In . SVG Version: 6.00 Build 0)  -->
<svg version="1.1" id="Layer_3" xmlns="http://www.w3.org/2000/svg" xmlns:xlink="http://www.w3.org/1999/xlink" x="0px" y="0px"
	 viewBox="0 0 300 300" style="enable-background:new 0 0 300 300;" xml:space="preserve">
<style type="text/css">
	.st0{fill-rule:evenodd;clip-rule:evenodd;fill:#FFFFFF;}
	.st1{fill:#FFFFFF;}
</style>
<g id="XMLID_8336_">
	<g>
		<g>
			<path class="st0" d="M125.3,172.9h-5.7c-0.2,0-0.3,0.2-0.3,0.3l-2.4,17.2c0,0.2,0.2,0.3,0.3,0.3h5.3c2.8,0,5-0.9,6.9-2.4
				c1.9-1.6,2.9-3.8,3.3-6.6c0.3-2.8-0.2-4.8-1.6-6.6C130,173.8,127.9,172.9,125.3,172.9z M129,181.7c-0.3,2.1-1,3.4-2.1,4.3
				c-1.2,0.9-2.4,1.4-4,1.4h-1.6l1.6-10.9c0-0.2,0.2-0.3,0.3-0.3h1.2c0.9,0,1.7,0.2,2.6,0.5c0.9,0.3,1.6,0.9,1.9,1.9
				C129,179.5,129.1,180.5,129,181.7z M145.2,172.8c-2.4,0-4.5,0.9-6.6,2.6c-1.9,1.7-3.1,4-3.4,6.6s0.2,4.8,1.6,6.6
				c1.4,1.7,3.4,2.6,6,2.6s4.8-0.9,6.7-2.6c1.9-1.7,3.1-4,3.4-6.6s-0.2-4.8-1.7-6.6C149.8,173.6,147.8,172.8,145.2,172.8z
				 M149,181.9c-0.2,1.7-0.9,3.1-1.9,4.1c-1,1-2.2,1.6-3.8,1.6c-1.4,0-2.6-0.5-3.3-1.6c-0.9-1-1-2.4-0.9-4c0.2-1.7,0.9-3.1,1.9-4.1
				c1-1,2.2-1.6,3.8-1.6c1.6,0,2.6,0.5,3.3,1.6C149,179,149.3,180.2,149,181.9z M170.9,172.9h-3.1c-0.2,0-0.3,0.2-0.3,0.3l-1.4,10.5
				c-0.2,1.2-0.5,2.1-1.2,2.6c-0.7,0.7-1.6,0.9-2.6,0.9c-0.9,0-1.6-0.3-2.1-0.9c-0.5-0.7-0.7-1.4-0.5-2.4l1.4-10.5
				c0-0.2-0.2-0.3-0.3-0.3h-3.1c-0.2,0-0.3,0.2-0.3,0.3l-1.6,11.6c-0.2,1.6,0.2,2.9,1,4.3c0.9,1.4,2.6,2.1,5,2.1
				c1.4,0,2.6-0.3,3.8-0.9c1.2-0.5,2.1-1.4,2.8-2.6c0.7-1,1-2.1,1.2-3.1l1.6-11.2C171.2,173.1,171,172.9,170.9,172.9z M188.1,172.9
				h-3.4c-0.2,0-0.2,0-0.2,0.2l-3.6,5c-0.2,0.2-0.5,0.2-0.5,0l-2.2-4.8c0-0.2-0.2-0.2-0.3-0.2h-3.6c-0.2,0-0.3,0.2-0.3,0.5l4.1,9
				v0.2l-1,7.9c0,0.2,0.2,0.3,0.3,0.3h3.1c0.2,0,0.3-0.2,0.3-0.3l1-7.9v-0.2l6.6-9C188.4,173.3,188.3,172.9,188.1,172.9z
				 M204.5,172.9h-3.1c-0.2,0-0.3,0.2-0.3,0.3l-1.4,10.5c-0.2,1.2-0.5,2.1-1.2,2.6c-0.7,0.7-1.6,0.9-2.6,0.9c-0.9,0-1.6-0.3-2.1-0.9
				c-0.5-0.7-0.7-1.4-0.5-2.4l1.4-10.5c0-0.2-0.2-0.3-0.3-0.3h-3.1c-0.2,0-0.3,0.2-0.3,0.3l-1.6,11.6c-0.2,1.6,0.2,2.9,1,4.3
				c0.9,1.4,2.6,2.1,5,2.1c1.4,0,2.6-0.3,3.8-0.9c1.2-0.5,2.1-1.4,2.8-2.6c0.7-1,1-2.1,1.2-3.1l1.6-11.2
				C204.8,173.1,204.6,172.9,204.5,172.9z M208.3,186.7c-0.5,0-1.2,0.2-1.6,0.7c-0.5,0.3-0.7,0.9-0.9,1.6c0,0.5,0,1,0.3,1.6
				c0.3,0.3,0.9,0.7,1.4,0.7s1.2-0.2,1.6-0.7c0.5-0.3,0.7-0.9,0.9-1.6c0-0.5,0-1-0.3-1.6C209.3,186.9,209,186.7,208.3,186.7z
				 M228.4,173.8c-1.6-0.7-3.1-1-4.7-1c-2.4,0-4.7,0.9-6.6,2.8c-1.9,1.7-3.1,4-3.4,6.6s0.2,4.7,1.6,6.4c1.4,1.7,3.3,2.6,5.7,2.6
				c1.4,0,3.1-0.3,5.2-1c0.2,0,0.2-0.2,0.2-0.2l0.5-3.6c0-0.2-0.2-0.3-0.5-0.3c-1.7,0.9-3.3,1.4-4.5,1.4c-1.6,0-2.6-0.5-3.4-1.4
				c-0.9-1-1-2.2-0.9-3.8c0.2-1.7,0.9-3.1,1.9-4c1-1,2.2-1.6,3.6-1.6c1.4,0,2.8,0.5,4.3,1.6c0.2,0.2,0.5,0,0.5-0.2l0.5-3.6
				C228.6,174,228.6,173.8,228.4,173.8z M239.8,172.8c-2.4,0-4.5,0.9-6.6,2.6c-1.9,1.7-3.1,4-3.4,6.6s0.2,4.8,1.6,6.6
				c1.4,1.7,3.4,2.6,6,2.6s4.8-0.9,6.7-2.6c1.9-1.7,3.1-4,3.4-6.6s-0.2-4.8-1.7-6.6C244.6,173.6,242.6,172.8,239.8,172.8z
				 M243.8,181.9c-0.2,1.7-0.9,3.1-1.9,4.1c-1,1-2.2,1.6-3.8,1.6c-1.4,0-2.6-0.5-3.3-1.6c-0.9-1-1-2.4-0.9-4
				c0.2-1.7,0.9-3.1,1.9-4.1c1-1,2.2-1.6,3.8-1.6c1.6,0,2.6,0.5,3.3,1.6C243.6,179,244,180.2,243.8,181.9z M268.3,172.9h-3.4
				c-0.2,0-0.2,0-0.3,0.2l-4.3,9.7c-0.2,0.3-0.5,0.2-0.5,0l-1.7-9.5c0-0.2-0.2-0.2-0.3-0.2h-4c-0.2,0-0.3,0.2-0.3,0.2l-4.5,17.2
				c0,0.2,0.2,0.3,0.3,0.3h3.1c0.2,0,0.3-0.2,0.3-0.2l2.8-11c0-0.3,0.5-0.3,0.5,0l1.9,11c0,0.2,0.2,0.2,0.3,0.2h1.2
				c0.2,0,0.2,0,0.3-0.2l4.8-11c0.2-0.3,0.5-0.2,0.5,0.2v10.9c0,0.2,0.2,0.3,0.3,0.3h2.8c0.2,0,0.3-0.2,0.3-0.3v-17.2
				C268.6,173.1,268.4,172.9,268.3,172.9z"/>
		</g>
	</g>
</g>
<g id="XMLID_8335_">
	<g>
		<g>
			<path class="st1" d="M145.7,137.9c0.5,0.5,1.2,0.9,1.9,0.9h10.9c0.7,0,1.2-0.3,1.4-0.9c0.2-0.5,0.2-1.2-0.2-1.7l-10.9-12.4
				c-0.3-0.5-0.5-1-0.2-1.7c0.2-0.5,0.9-0.9,1.4-0.9h11.6c1.9,0,3.6-1,4.5-2.9c0.9-1.7,0.5-3.8-0.9-5.2l-12.1-13.6
				c-0.5-0.5-1.2-0.9-1.9-0.9h-10.9c-0.7,0-1.2,0.3-1.4,0.9c-0.2,0.5-0.2,1.2,0.2,1.7l11.7,13.3c0.3,0.3,0.3,0.7,0.2,1
				c-0.2,0.3-0.5,0.7-0.9,0.7h-12.8c-1.9,0-3.6,1-4.5,2.9c-0.9,1.7-0.5,3.8,0.9,5.2L145.7,137.9z"/>
		</g>
	</g>
</g>
<g id="XMLID_8334_">
	<g>
		<g>
			<path class="st1" d="M180.2,143.5l6.7-47.4h-8.3c-1.2,0-2.4,1-2.6,2.2l-6.4,45.2h-46c-0.7,0-1.4,0.5-1.6,1.4l-1,6.9h40.9
				c1.7,0,3.3,0.7,4.3,1.9c1,1.2,1.6,2.9,1.4,4.5l-0.9,6.2h10.5l1.7-12.2c0-0.2,0.2-0.5,0.5-0.5h7.6c1.2,0,2.4-0.9,2.6-2.2l0.9-5.9
				C190.5,143.5,180.2,143.5,180.2,143.5z"/>
		</g>
	</g>
</g>
<g id="XMLID_8332_">
	<g>
		<g>
			<path class="st1" d="M197.8,157.8l-1,6.9h62.4c3.3,0,6.2-2.4,6.6-5.7l0.3-2.4h-66.7C198.4,156.4,197.9,156.9,197.8,157.8z"/>
		</g>
	</g>
</g>
<g id="XMLID_8325_">
	<g>
		<g>
			<path class="st1" d="M269,114c-0.3-0.3-0.7-0.5-1.2-0.5h-6l2.2-2.6c1.7-2.1,2.2-4.8,1-7.2c-1-2.4-3.4-4-6-4h-27.8l1-1
				c0.3-0.5,0.5-1,0.2-1.7c-0.2-0.5-0.9-0.9-1.4-0.9h-9.8c-0.7,0-1.4,0.3-1.9,0.9L202.4,116c-0.3,0.5-0.5,1-0.2,1.7
				c0.2,0.5,0.9,0.9,1.4,0.9h2.8l-4.3,31.4c0,0.5,0,0.9,0.3,1.2s0.7,0.5,1.2,0.5h58.4c1.2,0,2.4-1,2.6-2.2l4.8-34.3
				C269.3,114.7,269.3,114.3,269,114z M229,140.5l-0.3,2.9h-15.2l1-7.1h11c1,0,2.1,0.5,2.8,1.2C228.8,138.5,229.1,139.5,229,140.5z
				 M231,125.7l-0.3,2.6h-15.2l0.9-6.7h11c1,0,2.1,0.5,2.8,1.2C230.9,123.6,231.2,124.7,231,125.7z M257.4,125.7l-0.3,2.6h-15.7
				l0.9-6.7h11.6c1,0,2.1,0.5,2.8,1.2C257.2,123.6,257.4,124.7,257.4,125.7z M251.5,108.6l-4.1,4.8h-28.3l4.5-5
				c0.3-0.3,0.7-0.5,1.2-0.5H251c0.3,0,0.5,0.2,0.5,0.3C251.5,108.1,251.7,108.5,251.5,108.6z M255.2,140.5l-0.3,2.9h-15.7l1-7.1
				h11.6c1,0,2.1,0.5,2.8,1.2C255,138.5,255.3,139.5,255.2,140.5z"/>
		</g>
	</g>
</g>
<g>
	<path class="st1" d="M76.5,118.5c-0.5,1.2-1.4,2.8-2.6,4.5l5,4.3L76.5,118.5z"/>
	<path class="st1" d="M64.1,132.1l6.4,2.6l-1.4-6.2C67.6,129.7,66,130.9,64.1,132.1z"/>
	<path class="st1" d="M57.2,115.5c5.2,0,9.3-4.1,9.3-9.3c0-4.7-3.6-8.6-8.1-9.1c-0.3,0-1.9-0.2-2.8,0c-2.9,0.5-5.3,2.6-6.6,5.2
		c-0.7,1.2-1,2.6-1,4.1C48.1,111.4,52.2,115.5,57.2,115.5z M57.2,99.8c0.7,0,1.2,0.2,1.7,0.3c-1.6,0.3-2.8,1.7-2.8,3.3
		c0,1.9,1.6,3.4,3.4,3.4s3.4-1.4,3.4-3.3c0.3,0.9,0.5,1.7,0.5,2.6c0,3.6-2.9,6.4-6.6,6.4c-1.4,0-2.6-0.3-3.6-1l0,0
		c1.2,0,2.1-0.9,2.1-2.1s-1-2.1-2.1-2.1c-1.2,0-2.1,0.9-2.1,1.9c-0.5-0.9-0.9-2.1-0.9-3.1C50.7,102.8,53.6,99.8,57.2,99.8z"/>
	<path class="st1" d="M70,127.6c1.7,1.6,5.3,4.5,5.3,4.5l-1.7-8.4C72.6,124.8,71.4,126.2,70,127.6z"/>
	<path class="st1" d="M56.7,135.5l0.3,0.2c2.9,1.2,7.4,0.9,7.4,0.9l-1.9-3.6C60.9,133.8,59,134.7,56.7,135.5z"/>
	<path class="st1" d="M51.9,136.7c-0.3,0-0.5,0-0.9,0c-0.3,0-0.5,0-0.9,0c-0.5,0-1,0-1.4,0c-0.2,0-0.3,0-0.7,0c-0.5,0-1,0.2-1.6,0.3
		c-0.2,0-0.3,0-0.5,0.2c-0.5,0.2-1,0.3-1.6,0.5c-2.6,1-4.8,2.6-6,4.8c3.3,0,6.7,0.9,10,2.4c2.2-2.8,5.2-5.2,8.4-7.1
		c-1.6-0.5-3.3-1-4.8-1.2C52.2,136.7,52.1,136.7,51.9,136.7z"/>
	<path class="st1" d="M74.8,175.7c-2.2,1-3.8,1.9-3.8,1.9c2.9-4.1,11.6-5.9,21.4-15c1.2-1,2.4-2.1,3.6-3.3c1.2-1,2.2-2.4,3.3-3.6
		c0.5-0.7,1-1.2,1.4-1.9c0.5-0.7,1-1.2,1.4-1.9l1.2-2.1l1.2-2.1c0.3-0.7,0.7-1.4,1-2.2c0.3-0.7,0.7-1.4,0.9-2.2l0.9-2.2
		c0.3-0.7,0.3-1.6,0.7-2.2c0.5-1.6,0.7-3.1,0.9-4.7l0.2-2.4v-1.2v-1.2c0-3.3-0.3-6.6-1.2-9.7c-0.7-3.1-1.9-6.2-3.3-9.3
		c1.4,2.1,2.8,4.5,3.8,6.9c0.5-0.5,0.9-1.2,1.4-1.7c0.5-0.5,1.2-1.2,1.7-1.6c0.7-0.5,1.2-1,1.9-1.4c0.7-0.3,1.4-0.9,2.1-1.2
		c0.7-0.3,1.6-0.7,2.2-1c0.7-0.3,1.6-0.5,2.4-0.7c0.9-0.2,1.6-0.3,2.4-0.5c-0.3-0.5-0.9-1-1.2-1.6c-0.5-0.5-0.9-1-1.4-1.6l-0.7-0.7
		l-0.9-0.7c-0.5-0.5-1-0.9-1.7-1.2c-0.5-0.3-1.2-0.9-1.7-1.2c-0.5-0.3-1.2-0.7-1.9-1c-0.7-0.3-1.2-0.5-1.9-0.9
		c-0.7-0.2-1.4-0.5-2.1-0.7c-0.7-0.2-1.4-0.3-2.1-0.5c-0.7-0.2-1.4-0.2-2.1-0.3c-0.3,0-0.7,0-1-0.2h-1c-1.4,0-2.9,0-4.3,0.3
		c-1.2,0.2-2.6,0.5-3.8,0.9c0.3,0.3,0.5,0.5,0.9,0.7c0.2,0.2,0.2,0.2,0.3,0.3c3.3,2.6,5,4.7,5,4.7c-0.5-0.5-1-0.9-1.6-1.2
		c0,0,0,0,0.2,0.2c0,0,0,0-0.2-0.2c-1.6-1.4-3.1-2.4-4.7-3.4c-0.5-0.3-1.2-0.7-1.9-1c-0.9-0.5-2.1-1-3.3-1.6c-1.2-0.5-2.4-1-4-1.6
		c-1.4-0.5-2.9-0.9-4.5-1.2c-1.6-0.3-3.1-0.5-4.8-0.9c-1.4-0.2-2.8-0.2-4.1-0.2c-1.7,0-5.5,0.2-10,1.4c4,1.7,6.7,5.7,6.7,10.3
		c0,6.2-5,11.4-11.4,11.4c-6.2,0-11.4-5-11.4-11.4c0-0.5,0-1,0.2-1.7c-10,9.3-16.2,22.1-17.9,26c1.2,0.7,2.4,1.2,3.8,1.7
		c4,1.6,8.1,2.2,12.4,2.2c14.3,0,27.2-8.6,32.6-21.9c0.2-0.5,0.9-1,1.4-1l0,0c0.7,0,1.2,0.3,1.4,1c1,2.6,1.4,5.2,1.4,7.9
		c0,9.7-6,17.8-14.7,20.9c0.2,0.2,0.3,0.3,0.7,0.5l1,0.9l1,0.9c0.7,0.7,1.4,1.2,1.9,2.1c0.2,0.2,0.3,0.5,0.5,0.7
		c-0.2,0.3-0.5,0.5-0.7,0.7c-0.2,0.2-0.3,0.3-0.5,0.5c-0.5,0.5-1,1-1.7,1.4c-0.3,0.3-0.9,0.5-1.2,0.9c-0.3,0.3-0.9,0.5-1.4,0.7
		c-0.9,0.5-1.7,0.9-2.8,1.2l-1.4,0.5l-1.6,0.3c-0.9,0.2-1.7,0.3-2.6,0.3c0.5,0.5,1,0.9,1.7,1.4c0.7,0.5,1.6,0.9,2.2,1.4
		c0.9,0.3,1.6,0.7,2.4,1c0.9,0.3,1.7,0.5,2.6,0.7c0.9,0.2,1.7,0.3,2.6,0.3h0.7h0.2l0,0l0,0h0.3h1.4c0.5,0,1.2-0.2,1.9-0.2
		c0.2,0,0.5,0,0.7-0.2c0.5,0,0.9-0.2,1.2-0.3c0.2,0,0.2,0,0.3-0.2c0.3-0.2,0.7-0.2,1-0.3c0.3-0.2,0.9-0.3,1.2-0.5l1.2-0.5
		c0.9-0.3,1.6-0.9,2.2-1.4c0.3-0.2,0.7-0.5,1-0.9s0.7-0.5,1-0.9c0.7-0.5,1.2-1.2,1.9-1.9c0.5-0.7,1.2-1.4,1.6-2.2
		c0.3-0.3,0.5-0.9,0.7-1.2c0.2-0.3,0.5-0.9,0.7-1.2c0.3-0.9,0.7-1.7,1-2.6c-0.2,0.9-0.2,1.9-0.5,2.8c-0.2,0.5-0.3,0.9-0.5,1.4
		s-0.3,0.9-0.5,1.4c-0.3,0.9-0.9,1.7-1.4,2.6c-0.5,0.9-1.2,1.6-1.7,2.4c-0.3,0.3-0.7,0.7-1,1c-0.3,0.3-0.7,0.7-1,1
		c-0.7,0.7-1.6,1.2-2.4,1.7c-0.9,0.5-1.7,1-2.8,1.4c-0.5,0.2-0.9,0.3-1.4,0.5c0,0-2.1,9.5-11.4,12.9c0,0-8.6-3.3-17.9,0.2
		c-0.2,0.5,15.5,3.1,17.1,4.7s2.8,9.1,5.3,10.7C76.5,182.6,74.8,176,74.8,175.7z"/>
	<path class="st1" d="M37.9,144.1C37.9,144.1,37.8,144.1,37.9,144.1c-1.9,5.2,0,11.2,4.7,16c0.3-5,2.2-9.8,5.2-14
		C44.5,144.8,41,144.1,37.9,144.1z"/>
	<path class="st1" d="M69.1,165.7c2.2-1.9,2.9-2.6,3.8-4c0.2-0.2,0.2-0.5,0.3-0.7c0-0.2,0.2-0.5,0.2-0.7l-1.2,0.2
		c-0.5,0-1,0-1.4,0.2h-0.3h-0.2h-0.2H70h-0.7c-1,0-2.1-0.2-3.1-0.3s-2.1-0.3-2.9-0.7c-1.9-0.7-3.8-1.6-5.3-2.8
		c-0.9-0.5-1.6-1.2-2.4-1.9c-0.7-0.7-1.4-1.6-2.1-2.2l0,0l0,0c-0.5-0.5-0.3-1.4,0.2-1.9c0.3-0.2,0.7-0.3,1-0.3l0,0h0.2H56
		c0.3,0,0.9,0,1.4,0c0.9,0,1.7,0,2.8-0.2l1.4-0.2l1.4-0.3c0.9-0.2,1.7-0.5,2.6-0.9c0.3-0.2,0.9-0.3,1.2-0.5c0.3-0.2,0.9-0.3,1.2-0.7
		c0.7-0.3,1.2-0.7,1.7-1c-0.5-0.7-1-1.2-1.6-1.9l-0.9-0.9l-0.9-0.9c-0.5-0.5-1.2-1-1.9-1.6c-0.7-0.5-1.4-0.9-1.9-1.4
		c-0.7-0.3-1.4-0.7-2.1-1c-0.5-0.2-0.9-0.3-1.4-0.7c-8.8,4.1-14.7,13.1-15,22.8c1.4,1.2,2.9,2.4,4.7,3.3C56,168.8,64,169,69.1,165.7
		z"/>
</g>
</svg>
