<?xml version="1.0" encoding="utf-8"?>
<!-- Generator: Adobe Illustrator 24.2.1, SVG Export Plug-In . SVG Version: 6.00 Build 0)  -->
<svg version="1.1" id="Layer_1" xmlns="http://www.w3.org/2000/svg" xmlns:xlink="http://www.w3.org/1999/xlink" x="0px" y="0px"
	 viewBox="0 0 360 360" style="enable-background:new 0 0 360 360;" xml:space="preserve">
<style type="text/css">
	.st0{fill:#FFFFFF;}
</style>
<g>
	<g>
		<polygon class="st0" points="78.7,224.07 78.7,266.02 70.5,266.02 70.5,245.83 53.47,245.83 53.47,266.02 45.28,266.02 
			45.28,224.07 53.47,224.07 53.47,240.38 70.5,240.38 70.5,224.07 		"/>
		<g>
			<path class="st0" d="M101.51,250.33l-4,0.53c-1.88,0.25-3.41,0.87-4.58,1.92c-1.15,1.03-1.73,2.34-1.73,3.9
				c0,1.4,0.41,2.51,1.19,3.35c0.78,0.85,1.7,1.26,2.76,1.26c0.83,0,1.68-0.12,2.44-0.37c0.78-0.24,1.46-0.68,2-1.31
				c0.62-0.66,1.09-1.5,1.41-2.56c0.34-1.05,0.52-2.42,0.52-4.1V250.33z M103.3,266.02c-0.24-0.15-0.51-0.51-0.8-1.07
				c-0.3-0.56-0.48-1.13-0.48-1.69c-1.21,1.32-2.63,2.23-4.25,2.7c-1.57,0.49-3.13,0.72-4.72,0.72c-2.83,0-5.21-0.87-7.09-2.61
				c-1.86-1.72-2.82-4.09-2.82-7.1c0-2.75,0.99-5.17,2.99-7.23c1.97-2.06,4.84-3.29,8.58-3.67l6.73-0.79c0-2.55-0.57-4.3-1.71-5.24
				c-1.14-0.95-2.44-1.41-3.85-1.41c-1.76,0-3.42,0.39-5.01,1.17c-1.58,0.78-3.03,1.77-4.35,2.97l-1.39-6.06
				c1.61-1.12,3.3-1.94,5.08-2.51c1.78-0.55,3.8-0.83,6.15-0.83c1.41,0,2.93,0.2,4.45,0.59c1.55,0.41,2.93,1.06,4.16,1.97
				c1.29,0.93,2.33,2.14,3.14,3.64c0.77,1.49,1.2,3.34,1.2,5.54v13.06c0,1.25,0.09,2.56,0.28,3.96c0.2,1.42,0.62,2.7,1.19,3.9H103.3
				z"/>
			<path class="st0" d="M122.94,233.95v2.75c1.09-1.07,2.37-1.9,3.82-2.48c1.45-0.58,2.98-0.87,4.54-0.87
				c3.83,0,6.85,1.11,9.08,3.34c2.2,2.25,3.32,5.3,3.32,9.18v20.14h-7.85v-19c0-2.44-0.55-4.42-1.64-5.93
				c-1.11-1.53-2.66-2.28-4.66-2.28c-1.84,0-3.36,0.75-4.64,2.25c-1.26,1.49-1.89,3.57-1.89,6.21v18.75h-7.79v-32.07H122.94z"/>
			<path class="st0" d="M166.24,250.33l-4.02,0.53c-1.87,0.25-3.39,0.87-4.54,1.92c-1.16,1.03-1.74,2.34-1.74,3.9
				c0,1.4,0.4,2.51,1.17,3.35c0.77,0.85,1.71,1.26,2.78,1.26c0.87,0,1.63-0.12,2.42-0.37c0.78-0.24,1.46-0.68,2.01-1.31
				c0.62-0.66,1.08-1.5,1.41-2.56c0.35-1.05,0.52-2.42,0.52-4.1V250.33z M168.05,266.02c-0.26-0.15-0.52-0.51-0.82-1.07
				c-0.3-0.56-0.43-1.13-0.43-1.69c-1.23,1.32-2.66,2.23-4.26,2.7c-1.6,0.49-3.19,0.72-4.73,0.72c-2.86,0-5.2-0.87-7.07-2.61
				c-1.89-1.72-2.83-4.09-2.83-7.1c0-2.75,0.99-5.17,2.98-7.23c1.95-2.06,4.85-3.29,8.6-3.67l6.68-0.79c0-2.55-0.54-4.3-1.68-5.24
				c-1.14-0.95-2.43-1.41-3.87-1.41c-1.76,0-3.43,0.39-5,1.17c-1.59,0.78-3.04,1.77-4.36,2.97l-1.38-6.06
				c1.61-1.12,3.29-1.94,5.05-2.51c1.78-0.55,3.84-0.83,6.17-0.83c1.43,0,2.91,0.2,4.46,0.59c1.53,0.41,2.91,1.06,4.16,1.97
				c1.28,0.93,2.31,2.14,3.11,3.64c0.83,1.49,1.19,3.34,1.19,5.54v13.06c0,1.25,0.1,2.56,0.29,3.96c0.21,1.42,0.6,2.7,1.21,3.9
				H168.05z"/>
			<path class="st0" d="M196.89,246.78v14.03h4.3c2.08,0,3.79-0.61,5.21-1.83c1.35-1.22,2.05-2.96,2.05-5.25
				c0-2.51-0.81-4.31-2.45-5.36c-1.64-1.05-3.47-1.6-5.52-1.6H196.89z M196.89,229.28v12.29h3.05c2.27,0,3.98-0.61,5.15-1.82
				c1.18-1.22,1.75-2.85,1.75-4.9c0-1.67-0.48-3.02-1.48-4.04c-0.99-1.01-2.37-1.53-4.16-1.53H196.89z M201.98,266.02h-13.39v-41.96
				h14.29c3.52,0,6.43,0.89,8.71,2.69c2.28,1.79,3.46,4.12,3.46,6.97c0,2.82-0.7,5.07-2.09,6.7c-1.42,1.65-2.95,2.77-4.63,3.37
				c2.44,0.59,4.51,1.7,6.19,3.3c1.67,1.59,2.51,3.82,2.51,6.65c0,3.71-1.27,6.69-3.85,8.94
				C210.56,264.91,206.85,266.02,201.98,266.02"/>
			<path class="st0" d="M239.14,250.33l-4.03,0.53c-1.89,0.25-3.39,0.87-4.54,1.92c-1.17,1.03-1.76,2.34-1.76,3.9
				c0,1.4,0.4,2.51,1.19,3.35c0.75,0.85,1.7,1.26,2.77,1.26c0.85,0,1.64-0.12,2.44-0.37c0.74-0.24,1.42-0.68,1.99-1.31
				c0.6-0.66,1.07-1.5,1.39-2.56c0.36-1.05,0.54-2.42,0.54-4.1V250.33z M240.93,266.02c-0.22-0.15-0.5-0.51-0.8-1.07
				c-0.32-0.56-0.42-1.13-0.42-1.69c-1.26,1.32-2.69,2.23-4.29,2.7c-1.6,0.49-3.18,0.72-4.75,0.72c-2.83,0-5.2-0.87-7.07-2.61
				c-1.87-1.72-2.8-4.09-2.8-7.1c0-2.75,0.99-5.17,2.96-7.23c1.97-2.06,4.84-3.29,8.59-3.67l6.71-0.79c0-2.55-0.56-4.3-1.7-5.24
				c-1.13-0.95-2.44-1.41-3.85-1.41c-1.78,0-3.45,0.39-5.03,1.17c-1.55,0.78-3.01,1.77-4.33,2.97l-1.37-6.06
				c1.6-1.12,3.28-1.94,5.05-2.51c1.8-0.55,3.82-0.83,6.14-0.83c1.44,0,2.93,0.2,4.48,0.59c1.51,0.41,2.9,1.06,4.16,1.97
				c1.26,0.93,2.31,2.14,3.1,3.64c0.8,1.49,1.2,3.34,1.2,5.54v13.06c0,1.25,0.12,2.56,0.3,3.96c0.18,1.42,0.6,2.7,1.22,3.9H240.93z"
				/>
			<path class="st0" d="M260.6,233.95v2.75c1.07-1.07,2.35-1.9,3.81-2.48c1.45-0.58,2.98-0.87,4.54-0.87c3.83,0,6.85,1.11,9.06,3.34
				c2.23,2.25,3.33,5.3,3.33,9.18v20.14h-7.83v-19c0-2.44-0.56-4.42-1.65-5.93c-1.11-1.53-2.66-2.28-4.66-2.28
				c-1.82,0-3.38,0.75-4.62,2.25c-1.28,1.49-1.89,3.57-1.89,6.21v18.75h-7.8v-32.07H260.6z"/>
		</g>
		<polygon class="st0" points="286.85,266.02 286.85,222.26 294.65,222.26 294.65,245.22 304.84,233.95 313.18,233.95 
			300.75,247.69 314.72,266.02 305.8,266.02 294.65,251.47 294.65,266.02 		"/>
	</g>
	<g>
		<path class="st0" d="M196.49,148.32c-0.39-2.27-1.01-4.47-1.93-6.53c-2.89-6.24-6.92-11.47-12.93-14.99
			c-9.39-5.47-20.74-5.43-30.01,0.19c-4.2,2.54-7.66,6.19-9.88,10.58c-0.75,1.49-1.36,3.05-1.87,4.63
			c-2.43,7.77-2.36,18.23,2.07,25.32c1.42,2.31,3.48,4.28,6.03,5.27c2.56,0.99,5.57,0.87,7.85-0.6c2.96-1.91,3.49-5.54,2.92-8.78
			c-0.69-4.14-1.21-8.2,0.32-12.25c0.48-1.29,1.17-2.53,2.16-3.48c0.59-0.59,1.31-1.04,2.07-1.42c1.6-0.78,3.43-1.13,5.19-0.85
			c3.06,0.5,5.58,2.89,6.95,5.68c1.36,2.8,1.72,5.96,1.89,9.06c0.63,13.56-2.59,27.58-6.06,40.59c-0.36,1.33-0.72,2.68-1.09,4
			c-0.31,1.03-0.84,2.34-0.17,3.34c0.28,0.43,0.72,0.74,1.22,0.93c1.98,0.81,3.61-0.43,4.98-1.78c7.92-7.99,13.01-18.28,16.51-28.88
			c1.3-3.96,2.39-7.98,3.14-12.09C196.89,160.65,197.48,154.24,196.49,148.32"/>
		<path class="st0" d="M253.32,85.74c0-2.03-1.8-3.37-3.75-3.3c-1.94,0.06-3.76,1.07-5.58,1.75c-34.91,13.28-74.29,15.81-111.1,10.5
			c-6.29-0.91-12.66-2.18-18.99-3.16c-3.98-0.62-7.89-1.52-11.9-1.82c-3.4-0.25-7.64-0.38-10.38,1.98
			c-3.64,3.14-3.39,9.08-1.31,13.01c2.45,4.71,6.81,8.25,11.29,10.93c4.38,2.61,9.61,5.39,14.81,5.05
			c14.08-0.9,28.12-2.26,42.07-4.08c23.85-3.09,48.85-6.02,71.23-15.25c7.33-3.03,14.56-6.8,20.82-11.68
			C251.69,88.82,253.32,87.39,253.32,85.74"/>
		<path class="st0" d="M153.16,73.77c0,7.59,6.16,13.74,13.75,13.74c7.58,0,13.73-6.15,13.73-13.74c0-1.12-0.26-2.27-0.74-3.3
			c-1.17-2.49-2.51-3.7-2.37-6.69c0.18-4.04-5-4.09-7.79-4.09c-3.04,0-6.23,0.42-8.99,1.79c-2.19,1.11-4.07,2.79-5.42,4.85
			c-1.36,2.12-2.11,4.6-2.17,7.11C153.16,73.56,153.16,73.67,153.16,73.77"/>
	</g>
</g>
</svg>
