<svg id="Layer_1" data-name="Layer 1" xmlns="http://www.w3.org/2000/svg" xmlns:xlink="http://www.w3.org/1999/xlink" viewBox="0 0 151.64 51.5"><defs><style>.cls-1{fill:none;}.cls-2{clip-path:url(#clip-path);}.cls-3{fill:#fff;}</style><clipPath id="clip-path" transform="translate(-74.52 -27.48)"><rect class="cls-1" width="305.34" height="102.24"/></clipPath></defs><title>(2-2) Odyssey logo White_2</title><g class="cls-2"><path class="cls-3" d="M83.48,72.54A8.9,8.9,0,0,1,80,71.85,9.13,9.13,0,0,1,77.12,70a8.68,8.68,0,0,1-1.91-2.79,8.79,8.79,0,0,1,0-6.86,8.86,8.86,0,0,1,1.91-2.79A9,9,0,0,1,80,55.65a9.24,9.24,0,0,1,7,0,9.18,9.18,0,0,1,2.86,1.89,8.78,8.78,0,0,1,1.92,2.79,8.79,8.79,0,0,1,0,6.86A8.6,8.6,0,0,1,89.84,70,9.29,9.29,0,0,1,87,71.85a8.91,8.91,0,0,1-3.51.69m0-3.22a5.73,5.73,0,0,0,2.24-.44,5.91,5.91,0,0,0,1.83-1.19,5.47,5.47,0,0,0,1.22-1.77,5.54,5.54,0,0,0,0-4.35,5.49,5.49,0,0,0-1.22-1.77,5.89,5.89,0,0,0-1.83-1.19,5.85,5.85,0,0,0-6.3,1.19,5.55,5.55,0,0,0-1.21,1.77,5.54,5.54,0,0,0,0,4.35,5.54,5.54,0,0,0,1.21,1.77,5.78,5.78,0,0,0,4.06,1.63" transform="translate(-74.52 -27.48)"/><path class="cls-3" d="M99.88,72.54a7.05,7.05,0,0,1-4.73-1.85,6.81,6.81,0,0,1-1.58-2.21,7.06,7.06,0,0,1-.6-3,7.24,7.24,0,0,1,.59-3,6.65,6.65,0,0,1,3.79-3.59,7.26,7.26,0,0,1,2.58-.47,6.27,6.27,0,0,1,2.55.52,5.27,5.27,0,0,1,1.94,1.43V54.74h3.27V72.51h-3.24v-2a5.3,5.3,0,0,1-2,1.48,6.26,6.26,0,0,1-2.59.54m0.53-3a4.37,4.37,0,0,0,1.68-.32,3.88,3.88,0,0,0,1.32-.88,4.32,4.32,0,0,0,.88-1.31,4,4,0,0,0,.32-1.6,3.91,3.91,0,0,0-.32-1.58,4.19,4.19,0,0,0-.88-1.3,4,4,0,0,0-1.32-.87,4.6,4.6,0,0,0-3.35,0,4.33,4.33,0,0,0-1.36.86,3.86,3.86,0,0,0-.9,1.29,4,4,0,0,0-.32,1.6,4,4,0,0,0,.32,1.61,4,4,0,0,0,.9,1.31,4.22,4.22,0,0,0,1.36.87,4.4,4.4,0,0,0,1.67.32" transform="translate(-74.52 -27.48)"/><polygon class="cls-3" points="39.51 44.43 33.74 30.99 37.2 30.99 41.12 40.6 44.81 30.99 48.23 30.99 39.84 51.5 36.55 51.5 39.51 44.43"/><path class="cls-3" d="M128.1,72.54a7.79,7.79,0,0,1-3.87-.87,5.88,5.88,0,0,1-2.38-2.51l3-1.35a3.56,3.56,0,0,0,1.37,1.42,4,4,0,0,0,2,.49,2.84,2.84,0,0,0,1.8-.48,1.43,1.43,0,0,0,.6-1.15,0.74,0.74,0,0,0-.28-0.6,2.63,2.63,0,0,0-.72-0.4,6.18,6.18,0,0,0-1-.29l-1.25-.25q-0.91-.18-1.79-0.44a5.89,5.89,0,0,1-1.57-.7,3.58,3.58,0,0,1-1.13-1.15,3.49,3.49,0,0,1,0-3.3,4.2,4.2,0,0,1,1.12-1.32,5.52,5.52,0,0,1,1.74-.9,7.32,7.32,0,0,1,2.27-.33,7.16,7.16,0,0,1,3.52.78,5.92,5.92,0,0,1,2.22,2.13l-2.76,1.31a3.07,3.07,0,0,0-1.2-1.12,3.71,3.71,0,0,0-1.78-.41,2.74,2.74,0,0,0-1.71.43,1.27,1.27,0,0,0-.55,1,1,1,0,0,0,.82,1,19.37,19.37,0,0,0,2.4.61,16.46,16.46,0,0,1,1.74.42,6.61,6.61,0,0,1,1.6.71,3.64,3.64,0,0,1,1.16,1.15,3.21,3.21,0,0,1,.44,1.75,3.67,3.67,0,0,1-.34,1.48,4.29,4.29,0,0,1-1,1.42,5.5,5.5,0,0,1-1.79,1.07,7.28,7.28,0,0,1-2.59.41" transform="translate(-74.52 -27.48)"/><path class="cls-3" d="M140.3,72.54a7.79,7.79,0,0,1-3.87-.87,5.88,5.88,0,0,1-2.38-2.51l3-1.35a3.56,3.56,0,0,0,1.37,1.42,4,4,0,0,0,2,.49,2.84,2.84,0,0,0,1.8-.48,1.43,1.43,0,0,0,.6-1.15,0.74,0.74,0,0,0-.28-0.6,2.63,2.63,0,0,0-.72-0.4,6.18,6.18,0,0,0-1-.29l-1.25-.25q-0.91-.18-1.79-0.44a5.89,5.89,0,0,1-1.57-.7,3.58,3.58,0,0,1-1.13-1.15,3.49,3.49,0,0,1,0-3.3,4.2,4.2,0,0,1,1.12-1.32,5.52,5.52,0,0,1,1.74-.9,7.32,7.32,0,0,1,2.27-.33,7.16,7.16,0,0,1,3.52.78,5.92,5.92,0,0,1,2.22,2.13l-2.76,1.31a3.07,3.07,0,0,0-1.2-1.12,3.71,3.71,0,0,0-1.78-.41,2.74,2.74,0,0,0-1.71.43,1.27,1.27,0,0,0-.55,1,1,1,0,0,0,.82,1,19.37,19.37,0,0,0,2.4.61,16.46,16.46,0,0,1,1.74.42,6.61,6.61,0,0,1,1.6.71,3.64,3.64,0,0,1,1.16,1.15,3.21,3.21,0,0,1,.44,1.75,3.67,3.67,0,0,1-.34,1.48,4.29,4.29,0,0,1-1,1.42,5.5,5.5,0,0,1-1.79,1.07,7.28,7.28,0,0,1-2.59.41" transform="translate(-74.52 -27.48)"/><path class="cls-3" d="M153.94,72.54a8.12,8.12,0,0,1-3-.54,7,7,0,0,1-2.34-1.49,6.76,6.76,0,0,1-1.51-2.23,7,7,0,0,1-.54-2.74,6.94,6.94,0,0,1,2.11-5,7.45,7.45,0,0,1,5.19-2.06,8.07,8.07,0,0,1,2.89.51A6.78,6.78,0,0,1,159,60.37a6.54,6.54,0,0,1,1.5,2.15,6.69,6.69,0,0,1,.54,2.7v1.15H149.62a4.17,4.17,0,0,0,1.46,2.4,4.4,4.4,0,0,0,2.86.91,4.1,4.1,0,0,0,3.89-2.47l2.67,1.54a7.06,7.06,0,0,1-6.56,3.79M153.82,61.3a4.8,4.8,0,0,0-2.53.65,3.54,3.54,0,0,0-1.5,1.71h8a3,3,0,0,0-1.39-1.76,5,5,0,0,0-2.55-.6" transform="translate(-74.52 -27.48)"/><polygon class="cls-3" points="91.62 44.43 85.86 30.99 89.32 30.99 93.23 40.6 96.93 30.99 100.34 30.99 91.96 51.5 88.67 51.5 91.62 44.43"/><polygon class="cls-3" points="106.49 27.5 110.19 27.5 117.78 39.44 117.78 27.5 121.04 27.5 121.04 45.04 117.56 45.04 109.76 32.72 109.76 45.04 106.49 45.04 106.49 27.5"/><path class="cls-3" d="M204,72.54a8.12,8.12,0,0,1-3-.54,7,7,0,0,1-2.34-1.49,6.74,6.74,0,0,1-1.51-2.23,7,7,0,0,1-.54-2.74,6.94,6.94,0,0,1,2.11-5,7.45,7.45,0,0,1,5.19-2.06,8.07,8.07,0,0,1,2.89.51,6.78,6.78,0,0,1,2.29,1.42,6.56,6.56,0,0,1,1.5,2.15,6.69,6.69,0,0,1,.54,2.7v1.15H199.67a4.17,4.17,0,0,0,1.46,2.4,4.4,4.4,0,0,0,2.86.91,4.1,4.1,0,0,0,3.89-2.47l2.67,1.54A7.06,7.06,0,0,1,204,72.54M203.87,61.3a4.8,4.8,0,0,0-2.53.65,3.54,3.54,0,0,0-1.5,1.71h8a3,3,0,0,0-1.39-1.76,5,5,0,0,0-2.55-.6" transform="translate(-74.52 -27.48)"/><path class="cls-3" d="M218.88,72.54A7.45,7.45,0,0,1,216,72a7.07,7.07,0,0,1-3.87-3.75,7,7,0,0,1,0-5.51,7.09,7.09,0,0,1,1.55-2.24A7.16,7.16,0,0,1,216,59a7.47,7.47,0,0,1,2.85-.54,7.36,7.36,0,0,1,5.15,2,7,7,0,0,1,1.56,2.24,7,7,0,0,1,0,5.51A7,7,0,0,1,224,70.49a7.36,7.36,0,0,1-5.15,2m0-3.05a4.09,4.09,0,0,0,1.61-.31,4.15,4.15,0,0,0,1.3-.86A3.94,3.94,0,0,0,223,65.5a3.94,3.94,0,0,0-1.18-2.84,4.16,4.16,0,0,0-1.3-.86,4.09,4.09,0,0,0-1.61-.32,4.17,4.17,0,0,0-1.62.32,4,4,0,0,0-1.3.86,4,4,0,0,0-.85,1.27,4,4,0,0,0-.31,1.56,3.89,3.89,0,0,0,.31,1.54,3.92,3.92,0,0,0,2.15,2.13,4.17,4.17,0,0,0,1.62.31" transform="translate(-74.52 -27.48)"/><polygon class="cls-3" points="96.64 13.43 96.42 0.53 100.49 0.53 100.49 16.79 94.64 16.79 90.58 3.44 90.49 3.44 90.71 16.79 86.67 16.79 86.67 0.53 92.78 0.53 96.55 13.43 96.64 13.43"/><polygon class="cls-3" points="22.69 2.05 20.44 16.96 15.99 16.96 19.04 0.53 26.36 0.53 29.39 16.96 24.97 16.96 22.78 2.04 22.69 2.05"/><polygon class="cls-3" points="41.85 13.09 43.88 0.53 50.58 0.53 50.94 16.96 46.83 16.96 46.73 2.18 46.64 2.18 43.89 16.96 39.72 16.96 36.97 2.18 36.88 2.18 36.78 16.96 32.67 16.96 33.03 0.53 39.74 0.53 41.76 13.09 41.85 13.09"/><path class="cls-3" d="M83.59,39.8a2.17,2.17,0,0,1,0,1.22,1.42,1.42,0,0,1-1.6,1.1,1.46,1.46,0,0,1-1.65-1.48V39H76v1.28c0,3.66,2.89,4.76,6,4.76s5.42-1,5.81-3.74a8.22,8.22,0,0,0,0-2.71c-0.69-3.44-6.93-4.46-7.4-6.39a2,2,0,0,1,0-.86,1.36,1.36,0,0,1,1.5-1.1,1.4,1.4,0,0,1,1.53,1.49v1h4.1V31.61c0-3.58-3.21-4.14-5.54-4.14-2.92,0-5.31,1-5.74,3.65a5.63,5.63,0,0,0,0,2.22c0.71,3.36,6.55,4.33,7.4,6.46" transform="translate(-74.52 -27.48)"/><path class="cls-3" d="M137,39.77a2.18,2.18,0,0,1,0,1.21,1.4,1.4,0,0,1-1.58,1.08,1.45,1.45,0,0,1-1.64-1.47V39h-4.37v1.26c0,3.64,2.86,4.72,5.92,4.72s5.36-1,5.75-3.71a8.06,8.06,0,0,0,0-2.68c-0.69-3.41-6.87-4.41-7.32-6.33a2.05,2.05,0,0,1,0-.85,1.34,1.34,0,0,1,1.49-1.09,1.38,1.38,0,0,1,1.51,1.46v1h4.07V31.67c0-3.55-3.19-4.1-5.49-4.1-2.89,0-5.26.95-5.69,3.61a5.51,5.51,0,0,0,0,2.19c0.71,3.33,6.49,4.29,7.33,6.39" transform="translate(-74.52 -27.48)"/><path class="cls-3" d="M150.84,42a1.47,1.47,0,0,0,1.57-1.19,3.35,3.35,0,0,0,0-.62V28h4.16V39.78c0,0.31,0,.92,0,1.09-0.29,3.07-2.72,4.06-5.73,4.06s-5.45-1-5.73-4.06c0-.16-0.05-0.78,0-1.09V28h4.15V40.16a3,3,0,0,0,0,.63A1.47,1.47,0,0,0,150.84,42" transform="translate(-74.52 -27.48)"/><path class="cls-3" d="M185.12,41.8a1.53,1.53,0,0,0,1.68-1.19,3.27,3.27,0,0,0,0-.62V37.6h-1.68V35.2H191v4.41c0,0.31,0,.53-0.05,1.09-0.27,3-2.87,4.07-5.78,4.07s-5.51-1.08-5.78-4.07c0-.55-0.05-0.78-0.06-1.09V32.69c0-.29,0-0.81.07-1.08,0.37-3.08,2.85-4.06,5.77-4.06s5.47,1,5.77,4.06c0,0.52,0,1.08,0,1.08v0.55H186.8V32.32a3.3,3.3,0,0,0-.05-0.62,1.5,1.5,0,0,0-1.64-1.2,1.52,1.52,0,0,0-1.64,1.2,3.47,3.47,0,0,0-.07.77V40a4.23,4.23,0,0,0,0,.62,1.54,1.54,0,0,0,1.68,1.19" transform="translate(-74.52 -27.48)"/></g></svg>