<svg id="Layer_1" data-name="Layer 1" xmlns="http://www.w3.org/2000/svg" xmlns:xlink="http://www.w3.org/1999/xlink" viewBox="0 0 432 74.7"><defs><style>.cls-1{fill:none;}.cls-2{clip-path:url(#clip-path);}.cls-3{fill:#fff;}</style><clipPath id="clip-path" transform="translate(0 -36.05)"><rect class="cls-1" width="432" height="144"/></clipPath></defs><title>OMEN_logo_Horiz_rgb_OMEN_logo_horiz_rgb_white</title><g class="cls-2"><path class="cls-3" d="M193.69,46.18v56.68h10v-42l18.18,7.27L240,60.89v42h10V46.18L221.84,57.44ZM131.42,43A30.38,30.38,0,1,0,161.8,73.4,30.41,30.41,0,0,0,131.42,43m0,50.57a20.2,20.2,0,1,1,20.2-20.2,20.22,20.22,0,0,1-20.2,20.2m158.33,9.27h51.83v-10H299.71V79.7h32.6v-10h-32.6V56.53h41.86v-10H289.75v56.29Zm90.43-56.29v56.29h10V56.53H422v46.33h10V46.57H380.17Z" transform="translate(0 -36.05)"/><rect class="cls-3" x="10.94" y="46.99" width="52.82" height="52.82" transform="translate(-40.96 11.86) rotate(-45)"/></g></svg>